<mxfile host="app.diagrams.net" modified="2024-06-04T07:43:47.522Z" agent="Mozilla/5.0 (Windows NT 10.0; Win64; x64) AppleWebKit/537.36 (KHTML, like Gecko) Chrome/125.0.0.0 Safari/537.36" etag="IO35bC7bcnaAKsaX4EXx" version="24.4.13" type="device" pages="3">
  <diagram name="Trang-1" id="E6fYm904mRxqO0Z7ke9S">
    <mxGraphModel dx="1461" dy="689" grid="1" gridSize="10" guides="1" tooltips="1" connect="1" arrows="1" fold="1" page="1" pageScale="1" pageWidth="827" pageHeight="1169" math="0" shadow="0">
      <root>
        <mxCell id="0" />
        <mxCell id="1" parent="0" />
        <mxCell id="Mb3yHgcJe4T5eNl-yDP2-1" value="" style="edgeStyle=orthogonalEdgeStyle;rounded=0;orthogonalLoop=1;jettySize=auto;html=1;" parent="1" source="Mb3yHgcJe4T5eNl-yDP2-2" target="Mb3yHgcJe4T5eNl-yDP2-4" edge="1">
          <mxGeometry relative="1" as="geometry" />
        </mxCell>
        <mxCell id="Mb3yHgcJe4T5eNl-yDP2-2" value="Bắt đầu" style="rounded=1;whiteSpace=wrap;html=1;" parent="1" vertex="1">
          <mxGeometry x="281" y="40" width="120" height="40" as="geometry" />
        </mxCell>
        <mxCell id="Mb3yHgcJe4T5eNl-yDP2-3" value="" style="edgeStyle=orthogonalEdgeStyle;rounded=0;orthogonalLoop=1;jettySize=auto;html=1;" parent="1" source="Mb3yHgcJe4T5eNl-yDP2-4" target="Mb3yHgcJe4T5eNl-yDP2-7" edge="1">
          <mxGeometry relative="1" as="geometry" />
        </mxCell>
        <mxCell id="Mb3yHgcJe4T5eNl-yDP2-4" value="Kết nối Wifi" style="rounded=0;whiteSpace=wrap;html=1;" parent="1" vertex="1">
          <mxGeometry x="281" y="120" width="120" height="40" as="geometry" />
        </mxCell>
        <mxCell id="Mb3yHgcJe4T5eNl-yDP2-5" value="" style="edgeStyle=orthogonalEdgeStyle;rounded=0;orthogonalLoop=1;jettySize=auto;html=1;entryX=0.5;entryY=1;entryDx=0;entryDy=0;" parent="1" source="Mb3yHgcJe4T5eNl-yDP2-7" target="Mb3yHgcJe4T5eNl-yDP2-9" edge="1">
          <mxGeometry x="-0.2366" y="5" relative="1" as="geometry">
            <mxPoint as="offset" />
          </mxGeometry>
        </mxCell>
        <mxCell id="Mb3yHgcJe4T5eNl-yDP2-6" value="" style="edgeStyle=orthogonalEdgeStyle;rounded=0;orthogonalLoop=1;jettySize=auto;html=1;" parent="1" source="Mb3yHgcJe4T5eNl-yDP2-7" target="Mb3yHgcJe4T5eNl-yDP2-11" edge="1">
          <mxGeometry relative="1" as="geometry" />
        </mxCell>
        <mxCell id="Mb3yHgcJe4T5eNl-yDP2-7" value="Kiểm tra&amp;nbsp;&lt;div&gt;kết nối&lt;/div&gt;" style="rhombus;whiteSpace=wrap;html=1;" parent="1" vertex="1">
          <mxGeometry x="301.5" y="185" width="78" height="70" as="geometry" />
        </mxCell>
        <mxCell id="Mb3yHgcJe4T5eNl-yDP2-8" value="" style="edgeStyle=orthogonalEdgeStyle;rounded=0;orthogonalLoop=1;jettySize=auto;html=1;" parent="1" source="Mb3yHgcJe4T5eNl-yDP2-9" target="Mb3yHgcJe4T5eNl-yDP2-4" edge="1">
          <mxGeometry relative="1" as="geometry" />
        </mxCell>
        <mxCell id="Mb3yHgcJe4T5eNl-yDP2-9" value="In ra màn hình lỗi" style="rounded=0;whiteSpace=wrap;html=1;" parent="1" vertex="1">
          <mxGeometry x="121" y="120" width="120" height="40" as="geometry" />
        </mxCell>
        <mxCell id="Mb3yHgcJe4T5eNl-yDP2-10" value="" style="edgeStyle=orthogonalEdgeStyle;rounded=0;orthogonalLoop=1;jettySize=auto;html=1;" parent="1" source="Mb3yHgcJe4T5eNl-yDP2-11" target="Mb3yHgcJe4T5eNl-yDP2-20" edge="1">
          <mxGeometry relative="1" as="geometry" />
        </mxCell>
        <mxCell id="Mb3yHgcJe4T5eNl-yDP2-11" value="Đọc các dữ liệu của cảm biến thu được" style="rounded=0;whiteSpace=wrap;html=1;" parent="1" vertex="1">
          <mxGeometry x="281" y="320" width="120" height="40" as="geometry" />
        </mxCell>
        <mxCell id="Mb3yHgcJe4T5eNl-yDP2-12" value="" style="edgeStyle=orthogonalEdgeStyle;rounded=0;orthogonalLoop=1;jettySize=auto;html=1;" parent="1" source="Mb3yHgcJe4T5eNl-yDP2-13" target="Mb3yHgcJe4T5eNl-yDP2-16" edge="1">
          <mxGeometry relative="1" as="geometry" />
        </mxCell>
        <mxCell id="Mb3yHgcJe4T5eNl-yDP2-13" value="In ra màn hình Serial và OLED các giá trị đọc được" style="rounded=0;whiteSpace=wrap;html=1;" parent="1" vertex="1">
          <mxGeometry x="281" y="480" width="120" height="40" as="geometry" />
        </mxCell>
        <mxCell id="Mb3yHgcJe4T5eNl-yDP2-14" value="" style="edgeStyle=orthogonalEdgeStyle;rounded=0;orthogonalLoop=1;jettySize=auto;html=1;" parent="1" source="Mb3yHgcJe4T5eNl-yDP2-16" target="Mb3yHgcJe4T5eNl-yDP2-28" edge="1">
          <mxGeometry relative="1" as="geometry" />
        </mxCell>
        <mxCell id="Mb3yHgcJe4T5eNl-yDP2-15" value="" style="edgeStyle=orthogonalEdgeStyle;rounded=0;orthogonalLoop=1;jettySize=auto;html=1;" parent="1" source="Mb3yHgcJe4T5eNl-yDP2-16" target="Mb3yHgcJe4T5eNl-yDP2-58" edge="1">
          <mxGeometry relative="1" as="geometry" />
        </mxCell>
        <mxCell id="Mb3yHgcJe4T5eNl-yDP2-16" value="Hiển thị dữ liệu theo thời gian thực lên node-red" style="rounded=0;whiteSpace=wrap;html=1;" parent="1" vertex="1">
          <mxGeometry x="281" y="560" width="120" height="40" as="geometry" />
        </mxCell>
        <mxCell id="Mb3yHgcJe4T5eNl-yDP2-17" value="" style="edgeStyle=orthogonalEdgeStyle;rounded=0;orthogonalLoop=1;jettySize=auto;html=1;" parent="1" source="Mb3yHgcJe4T5eNl-yDP2-18" target="Mb3yHgcJe4T5eNl-yDP2-84" edge="1">
          <mxGeometry relative="1" as="geometry" />
        </mxCell>
        <mxCell id="Mb3yHgcJe4T5eNl-yDP2-18" value="Đưa dữ liệu đọc được và dữ liệu thay đổi trên giao diện Node-red vào Database" style="rounded=0;whiteSpace=wrap;html=1;" parent="1" vertex="1">
          <mxGeometry x="281" y="840" width="119" height="80" as="geometry" />
        </mxCell>
        <mxCell id="Mb3yHgcJe4T5eNl-yDP2-19" value="" style="edgeStyle=orthogonalEdgeStyle;rounded=0;orthogonalLoop=1;jettySize=auto;html=1;" parent="1" source="Mb3yHgcJe4T5eNl-yDP2-20" target="Mb3yHgcJe4T5eNl-yDP2-13" edge="1">
          <mxGeometry relative="1" as="geometry" />
        </mxCell>
        <mxCell id="Mb3yHgcJe4T5eNl-yDP2-20" value="Đọc trạng thái nút nhấn" style="rounded=0;whiteSpace=wrap;html=1;" parent="1" vertex="1">
          <mxGeometry x="281" y="400" width="120" height="40" as="geometry" />
        </mxCell>
        <mxCell id="Mb3yHgcJe4T5eNl-yDP2-21" value="Yes" style="text;html=1;align=center;verticalAlign=middle;whiteSpace=wrap;rounded=0;" parent="1" vertex="1">
          <mxGeometry x="341" y="270" width="30" height="10" as="geometry" />
        </mxCell>
        <mxCell id="Mb3yHgcJe4T5eNl-yDP2-22" value="No" style="text;html=1;align=center;verticalAlign=middle;whiteSpace=wrap;rounded=0;" parent="1" vertex="1">
          <mxGeometry x="222" y="210" width="30" height="10" as="geometry" />
        </mxCell>
        <mxCell id="Mb3yHgcJe4T5eNl-yDP2-23" value="Điều khiển quạt" style="rhombus;whiteSpace=wrap;html=1;" parent="1" vertex="1">
          <mxGeometry x="521" y="280" width="80" height="80" as="geometry" />
        </mxCell>
        <mxCell id="Mb3yHgcJe4T5eNl-yDP2-24" value="Bật" style="ellipse;whiteSpace=wrap;html=1;aspect=fixed;" parent="1" vertex="1">
          <mxGeometry x="581.58" y="240" width="40" height="40" as="geometry" />
        </mxCell>
        <mxCell id="Mb3yHgcJe4T5eNl-yDP2-25" value="Điều khiển đèn" style="rhombus;whiteSpace=wrap;html=1;" parent="1" vertex="1">
          <mxGeometry x="680" y="280" width="80" height="80" as="geometry" />
        </mxCell>
        <mxCell id="Mb3yHgcJe4T5eNl-yDP2-26" value="Tắt" style="ellipse;whiteSpace=wrap;html=1;aspect=fixed;" parent="1" vertex="1">
          <mxGeometry x="660" y="240" width="40" height="40" as="geometry" />
        </mxCell>
        <mxCell id="Mb3yHgcJe4T5eNl-yDP2-27" value="Bật" style="ellipse;whiteSpace=wrap;html=1;aspect=fixed;" parent="1" vertex="1">
          <mxGeometry x="740" y="240" width="40" height="40" as="geometry" />
        </mxCell>
        <mxCell id="Mb3yHgcJe4T5eNl-yDP2-28" value="Điều khiển trên Node-red" style="rounded=0;whiteSpace=wrap;html=1;" parent="1" vertex="1">
          <mxGeometry x="281" y="640" width="120" height="40" as="geometry" />
        </mxCell>
        <mxCell id="Mb3yHgcJe4T5eNl-yDP2-29" value="" style="endArrow=classic;html=1;rounded=0;exitX=1;exitY=0.5;exitDx=0;exitDy=0;" parent="1" source="Mb3yHgcJe4T5eNl-yDP2-20" edge="1">
          <mxGeometry width="50" height="50" relative="1" as="geometry">
            <mxPoint x="401" y="400" as="sourcePoint" />
            <mxPoint x="560" y="380" as="targetPoint" />
            <Array as="points">
              <mxPoint x="440" y="420" />
              <mxPoint x="440" y="380" />
            </Array>
          </mxGeometry>
        </mxCell>
        <mxCell id="Mb3yHgcJe4T5eNl-yDP2-31" value="Tắt" style="ellipse;whiteSpace=wrap;html=1;aspect=fixed;" parent="1" vertex="1">
          <mxGeometry x="500.00000000000006" y="240" width="40" height="40" as="geometry" />
        </mxCell>
        <mxCell id="Mb3yHgcJe4T5eNl-yDP2-32" value="Điều khiển đèn" style="rhombus;whiteSpace=wrap;html=1;" parent="1" vertex="1">
          <mxGeometry x="49" y="680" width="80" height="80" as="geometry" />
        </mxCell>
        <mxCell id="Mb3yHgcJe4T5eNl-yDP2-33" value="Tắt" style="ellipse;whiteSpace=wrap;html=1;aspect=fixed;" parent="1" vertex="1">
          <mxGeometry x="30" y="760" width="40" height="40" as="geometry" />
        </mxCell>
        <mxCell id="Mb3yHgcJe4T5eNl-yDP2-34" value="Bật" style="ellipse;whiteSpace=wrap;html=1;aspect=fixed;" parent="1" vertex="1">
          <mxGeometry x="109" y="760" width="40" height="40" as="geometry" />
        </mxCell>
        <mxCell id="Mb3yHgcJe4T5eNl-yDP2-35" value="" style="endArrow=classic;html=1;rounded=0;exitX=1;exitY=1;exitDx=0;exitDy=0;entryX=0.5;entryY=0;entryDx=0;entryDy=0;" parent="1" source="Mb3yHgcJe4T5eNl-yDP2-32" target="Mb3yHgcJe4T5eNl-yDP2-34" edge="1">
          <mxGeometry width="50" height="50" relative="1" as="geometry">
            <mxPoint x="110" y="745" as="sourcePoint" />
            <mxPoint x="209" y="745" as="targetPoint" />
          </mxGeometry>
        </mxCell>
        <mxCell id="Mb3yHgcJe4T5eNl-yDP2-36" value="" style="endArrow=classic;html=1;rounded=0;exitX=0;exitY=1;exitDx=0;exitDy=0;entryX=0.5;entryY=0;entryDx=0;entryDy=0;" parent="1" source="Mb3yHgcJe4T5eNl-yDP2-32" target="Mb3yHgcJe4T5eNl-yDP2-33" edge="1">
          <mxGeometry width="50" height="50" relative="1" as="geometry">
            <mxPoint x="70" y="720" as="sourcePoint" />
            <mxPoint x="90" y="760" as="targetPoint" />
          </mxGeometry>
        </mxCell>
        <mxCell id="Mb3yHgcJe4T5eNl-yDP2-37" value="Điều khiển quạt" style="rhombus;whiteSpace=wrap;html=1;" parent="1" vertex="1">
          <mxGeometry x="182" y="680" width="80" height="80" as="geometry" />
        </mxCell>
        <mxCell id="Mb3yHgcJe4T5eNl-yDP2-38" value="Bật" style="ellipse;whiteSpace=wrap;html=1;aspect=fixed;" parent="1" vertex="1">
          <mxGeometry x="242" y="760" width="40" height="40" as="geometry" />
        </mxCell>
        <mxCell id="Mb3yHgcJe4T5eNl-yDP2-39" value="" style="endArrow=classic;html=1;rounded=0;exitX=1;exitY=1;exitDx=0;exitDy=0;entryX=0.5;entryY=0;entryDx=0;entryDy=0;" parent="1" source="Mb3yHgcJe4T5eNl-yDP2-37" target="Mb3yHgcJe4T5eNl-yDP2-38" edge="1">
          <mxGeometry width="50" height="50" relative="1" as="geometry">
            <mxPoint x="242" y="745" as="sourcePoint" />
            <mxPoint x="262" y="785" as="targetPoint" />
          </mxGeometry>
        </mxCell>
        <mxCell id="Mb3yHgcJe4T5eNl-yDP2-40" value="" style="endArrow=classic;html=1;rounded=0;exitX=0;exitY=1;exitDx=0;exitDy=0;entryX=0.5;entryY=0;entryDx=0;entryDy=0;" parent="1" source="Mb3yHgcJe4T5eNl-yDP2-37" target="Mb3yHgcJe4T5eNl-yDP2-41" edge="1">
          <mxGeometry width="50" height="50" relative="1" as="geometry">
            <mxPoint x="202" y="745" as="sourcePoint" />
            <mxPoint x="182" y="785" as="targetPoint" />
          </mxGeometry>
        </mxCell>
        <mxCell id="Mb3yHgcJe4T5eNl-yDP2-41" value="Tắt" style="ellipse;whiteSpace=wrap;html=1;aspect=fixed;" parent="1" vertex="1">
          <mxGeometry x="162" y="760" width="40" height="40" as="geometry" />
        </mxCell>
        <mxCell id="Mb3yHgcJe4T5eNl-yDP2-42" value="Phát hiện chuyển động&amp;nbsp;" style="rhombus;whiteSpace=wrap;html=1;" parent="1" vertex="1">
          <mxGeometry x="400" y="680" width="80" height="80" as="geometry" />
        </mxCell>
        <mxCell id="Mb3yHgcJe4T5eNl-yDP2-43" value="Bật quạt" style="ellipse;whiteSpace=wrap;html=1;aspect=fixed;" parent="1" vertex="1">
          <mxGeometry x="460" y="760" width="40" height="40" as="geometry" />
        </mxCell>
        <mxCell id="Mb3yHgcJe4T5eNl-yDP2-44" value="" style="endArrow=classic;html=1;rounded=0;exitX=1;exitY=1;exitDx=0;exitDy=0;entryX=0.5;entryY=0;entryDx=0;entryDy=0;" parent="1" source="Mb3yHgcJe4T5eNl-yDP2-42" target="Mb3yHgcJe4T5eNl-yDP2-43" edge="1">
          <mxGeometry width="50" height="50" relative="1" as="geometry">
            <mxPoint x="460" y="745" as="sourcePoint" />
            <mxPoint x="480" y="785" as="targetPoint" />
          </mxGeometry>
        </mxCell>
        <mxCell id="Mb3yHgcJe4T5eNl-yDP2-45" value="" style="endArrow=classic;html=1;rounded=0;exitX=1;exitY=0.5;exitDx=0;exitDy=0;entryX=0.5;entryY=0;entryDx=0;entryDy=0;" parent="1" source="Mb3yHgcJe4T5eNl-yDP2-47" edge="1">
          <mxGeometry width="50" height="50" relative="1" as="geometry">
            <mxPoint x="420" y="745" as="sourcePoint" />
            <mxPoint x="400" y="785" as="targetPoint" />
          </mxGeometry>
        </mxCell>
        <mxCell id="Mb3yHgcJe4T5eNl-yDP2-46" value="" style="endArrow=classic;html=1;rounded=0;exitX=0;exitY=1;exitDx=0;exitDy=0;entryX=0.5;entryY=0;entryDx=0;entryDy=0;" parent="1" source="Mb3yHgcJe4T5eNl-yDP2-42" target="Mb3yHgcJe4T5eNl-yDP2-47" edge="1">
          <mxGeometry width="50" height="50" relative="1" as="geometry">
            <mxPoint x="420" y="745" as="sourcePoint" />
            <mxPoint x="400" y="785" as="targetPoint" />
          </mxGeometry>
        </mxCell>
        <mxCell id="Mb3yHgcJe4T5eNl-yDP2-47" value="Tắt quạt" style="ellipse;whiteSpace=wrap;html=1;aspect=fixed;" parent="1" vertex="1">
          <mxGeometry x="380" y="760" width="40" height="40" as="geometry" />
        </mxCell>
        <mxCell id="Mb3yHgcJe4T5eNl-yDP2-48" value="Yes" style="text;html=1;align=center;verticalAlign=middle;whiteSpace=wrap;rounded=0;" parent="1" vertex="1">
          <mxGeometry x="741" y="290" width="30" height="10" as="geometry" />
        </mxCell>
        <mxCell id="Mb3yHgcJe4T5eNl-yDP2-49" value="Yes" style="text;html=1;align=center;verticalAlign=middle;whiteSpace=wrap;rounded=0;" parent="1" vertex="1">
          <mxGeometry x="584" y="290" width="30" height="10" as="geometry" />
        </mxCell>
        <mxCell id="Mb3yHgcJe4T5eNl-yDP2-50" value="Yes" style="text;html=1;align=center;verticalAlign=middle;whiteSpace=wrap;rounded=0;" parent="1" vertex="1">
          <mxGeometry x="120" y="740" width="30" height="10" as="geometry" />
        </mxCell>
        <mxCell id="Mb3yHgcJe4T5eNl-yDP2-51" value="Yes" style="text;html=1;align=center;verticalAlign=middle;whiteSpace=wrap;rounded=0;" parent="1" vertex="1">
          <mxGeometry x="252" y="740" width="30" height="10" as="geometry" />
        </mxCell>
        <mxCell id="Mb3yHgcJe4T5eNl-yDP2-52" value="Yes" style="text;html=1;align=center;verticalAlign=middle;whiteSpace=wrap;rounded=0;" parent="1" vertex="1">
          <mxGeometry x="471" y="740" width="30" height="10" as="geometry" />
        </mxCell>
        <mxCell id="Mb3yHgcJe4T5eNl-yDP2-53" value="No" style="text;html=1;align=center;verticalAlign=middle;whiteSpace=wrap;rounded=0;" parent="1" vertex="1">
          <mxGeometry x="665" y="290" width="30" height="10" as="geometry" />
        </mxCell>
        <mxCell id="Mb3yHgcJe4T5eNl-yDP2-54" value="No" style="text;html=1;align=center;verticalAlign=middle;whiteSpace=wrap;rounded=0;" parent="1" vertex="1">
          <mxGeometry x="510.00000000000006" y="290" width="30" height="10" as="geometry" />
        </mxCell>
        <mxCell id="Mb3yHgcJe4T5eNl-yDP2-55" value="No" style="text;html=1;align=center;verticalAlign=middle;whiteSpace=wrap;rounded=0;" parent="1" vertex="1">
          <mxGeometry x="30" y="740" width="30" height="10" as="geometry" />
        </mxCell>
        <mxCell id="Mb3yHgcJe4T5eNl-yDP2-56" value="No" style="text;html=1;align=center;verticalAlign=middle;whiteSpace=wrap;rounded=0;" parent="1" vertex="1">
          <mxGeometry x="167" y="740" width="30" height="10" as="geometry" />
        </mxCell>
        <mxCell id="Mb3yHgcJe4T5eNl-yDP2-57" value="No" style="text;html=1;align=center;verticalAlign=middle;whiteSpace=wrap;rounded=0;" parent="1" vertex="1">
          <mxGeometry x="385" y="740" width="30" height="10" as="geometry" />
        </mxCell>
        <mxCell id="Mb3yHgcJe4T5eNl-yDP2-58" value="Ngưỡng khí gas vượt ngưỡng" style="rhombus;whiteSpace=wrap;html=1;" parent="1" vertex="1">
          <mxGeometry x="439" y="440" width="80" height="80" as="geometry" />
        </mxCell>
        <mxCell id="Mb3yHgcJe4T5eNl-yDP2-59" value="Yes" style="text;html=1;align=center;verticalAlign=middle;whiteSpace=wrap;rounded=0;" parent="1" vertex="1">
          <mxGeometry x="539" y="470" width="30" height="10" as="geometry" />
        </mxCell>
        <mxCell id="Mb3yHgcJe4T5eNl-yDP2-60" value="No" style="text;html=1;align=center;verticalAlign=middle;whiteSpace=wrap;rounded=0;" parent="1" vertex="1">
          <mxGeometry x="481" y="420" width="30" height="10" as="geometry" />
        </mxCell>
        <mxCell id="Mb3yHgcJe4T5eNl-yDP2-61" value="" style="endArrow=classic;html=1;rounded=0;exitX=0.5;exitY=1;exitDx=0;exitDy=0;entryX=0.5;entryY=0;entryDx=0;entryDy=0;" parent="1" source="Mb3yHgcJe4T5eNl-yDP2-28" target="Mb3yHgcJe4T5eNl-yDP2-18" edge="1">
          <mxGeometry width="50" height="50" relative="1" as="geometry">
            <mxPoint x="340" y="860" as="sourcePoint" />
            <mxPoint x="390" y="810" as="targetPoint" />
          </mxGeometry>
        </mxCell>
        <mxCell id="Mb3yHgcJe4T5eNl-yDP2-62" value="" style="endArrow=classic;html=1;rounded=0;entryX=1;entryY=0.5;entryDx=0;entryDy=0;" parent="1" target="Mb3yHgcJe4T5eNl-yDP2-11" edge="1">
          <mxGeometry width="50" height="50" relative="1" as="geometry">
            <mxPoint x="341" y="1120" as="sourcePoint" />
            <mxPoint x="482" y="220" as="targetPoint" />
            <Array as="points">
              <mxPoint x="561" y="1120" />
              <mxPoint x="801" y="1120" />
              <mxPoint x="802" y="220" />
              <mxPoint x="480" y="220" />
              <mxPoint x="480" y="340" />
            </Array>
          </mxGeometry>
        </mxCell>
        <mxCell id="Mb3yHgcJe4T5eNl-yDP2-63" value="Bật/tắt Buzzer" style="rhombus;whiteSpace=wrap;html=1;" parent="1" vertex="1">
          <mxGeometry x="680" y="680" width="80" height="80" as="geometry" />
        </mxCell>
        <mxCell id="Mb3yHgcJe4T5eNl-yDP2-64" value="Bật Buzzer" style="ellipse;whiteSpace=wrap;html=1;aspect=fixed;" parent="1" vertex="1">
          <mxGeometry x="740" y="760" width="40" height="40" as="geometry" />
        </mxCell>
        <mxCell id="Mb3yHgcJe4T5eNl-yDP2-65" value="" style="endArrow=classic;html=1;rounded=0;exitX=1;exitY=1;exitDx=0;exitDy=0;entryX=0.5;entryY=0;entryDx=0;entryDy=0;" parent="1" source="Mb3yHgcJe4T5eNl-yDP2-63" target="Mb3yHgcJe4T5eNl-yDP2-64" edge="1">
          <mxGeometry width="50" height="50" relative="1" as="geometry">
            <mxPoint x="740" y="745" as="sourcePoint" />
            <mxPoint x="760" y="785" as="targetPoint" />
          </mxGeometry>
        </mxCell>
        <mxCell id="Mb3yHgcJe4T5eNl-yDP2-66" value="" style="endArrow=classic;html=1;rounded=0;exitX=1;exitY=0.5;exitDx=0;exitDy=0;entryX=0.5;entryY=0;entryDx=0;entryDy=0;" parent="1" source="Mb3yHgcJe4T5eNl-yDP2-68" edge="1">
          <mxGeometry width="50" height="50" relative="1" as="geometry">
            <mxPoint x="700" y="745" as="sourcePoint" />
            <mxPoint x="680" y="785" as="targetPoint" />
          </mxGeometry>
        </mxCell>
        <mxCell id="Mb3yHgcJe4T5eNl-yDP2-67" value="" style="endArrow=classic;html=1;rounded=0;exitX=0;exitY=1;exitDx=0;exitDy=0;entryX=0.5;entryY=0;entryDx=0;entryDy=0;" parent="1" source="Mb3yHgcJe4T5eNl-yDP2-63" target="Mb3yHgcJe4T5eNl-yDP2-68" edge="1">
          <mxGeometry width="50" height="50" relative="1" as="geometry">
            <mxPoint x="700" y="745" as="sourcePoint" />
            <mxPoint x="680" y="785" as="targetPoint" />
          </mxGeometry>
        </mxCell>
        <mxCell id="Mb3yHgcJe4T5eNl-yDP2-68" value="Tắt Buzzer" style="ellipse;whiteSpace=wrap;html=1;aspect=fixed;" parent="1" vertex="1">
          <mxGeometry x="660" y="760" width="40" height="40" as="geometry" />
        </mxCell>
        <mxCell id="Mb3yHgcJe4T5eNl-yDP2-69" value="Yes" style="text;html=1;align=center;verticalAlign=middle;whiteSpace=wrap;rounded=0;" parent="1" vertex="1">
          <mxGeometry x="751" y="740" width="30" height="10" as="geometry" />
        </mxCell>
        <mxCell id="Mb3yHgcJe4T5eNl-yDP2-70" value="No" style="text;html=1;align=center;verticalAlign=middle;whiteSpace=wrap;rounded=0;" parent="1" vertex="1">
          <mxGeometry x="665" y="740" width="30" height="10" as="geometry" />
        </mxCell>
        <mxCell id="Mb3yHgcJe4T5eNl-yDP2-71" value="Bật/tắt PIR" style="rhombus;whiteSpace=wrap;html=1;" parent="1" vertex="1">
          <mxGeometry x="540" y="680" width="80" height="80" as="geometry" />
        </mxCell>
        <mxCell id="Mb3yHgcJe4T5eNl-yDP2-72" value="Bật PIR" style="ellipse;whiteSpace=wrap;html=1;aspect=fixed;" parent="1" vertex="1">
          <mxGeometry x="599" y="760" width="40" height="40" as="geometry" />
        </mxCell>
        <mxCell id="Mb3yHgcJe4T5eNl-yDP2-73" value="" style="endArrow=classic;html=1;rounded=0;exitX=1;exitY=1;exitDx=0;exitDy=0;entryX=0.5;entryY=0;entryDx=0;entryDy=0;" parent="1" source="Mb3yHgcJe4T5eNl-yDP2-71" target="Mb3yHgcJe4T5eNl-yDP2-72" edge="1">
          <mxGeometry width="50" height="50" relative="1" as="geometry">
            <mxPoint x="599" y="745" as="sourcePoint" />
            <mxPoint x="619" y="785" as="targetPoint" />
          </mxGeometry>
        </mxCell>
        <mxCell id="Mb3yHgcJe4T5eNl-yDP2-74" value="" style="endArrow=classic;html=1;rounded=0;exitX=1;exitY=0.5;exitDx=0;exitDy=0;entryX=0.5;entryY=0;entryDx=0;entryDy=0;" parent="1" source="Mb3yHgcJe4T5eNl-yDP2-76" edge="1">
          <mxGeometry width="50" height="50" relative="1" as="geometry">
            <mxPoint x="559" y="745" as="sourcePoint" />
            <mxPoint x="539" y="785" as="targetPoint" />
          </mxGeometry>
        </mxCell>
        <mxCell id="Mb3yHgcJe4T5eNl-yDP2-75" value="" style="endArrow=classic;html=1;rounded=0;exitX=0;exitY=1;exitDx=0;exitDy=0;entryX=0.5;entryY=0;entryDx=0;entryDy=0;" parent="1" source="Mb3yHgcJe4T5eNl-yDP2-71" target="Mb3yHgcJe4T5eNl-yDP2-76" edge="1">
          <mxGeometry width="50" height="50" relative="1" as="geometry">
            <mxPoint x="559" y="745" as="sourcePoint" />
            <mxPoint x="539" y="785" as="targetPoint" />
          </mxGeometry>
        </mxCell>
        <mxCell id="Mb3yHgcJe4T5eNl-yDP2-76" value="Tắt PIR" style="ellipse;whiteSpace=wrap;html=1;aspect=fixed;" parent="1" vertex="1">
          <mxGeometry x="519" y="760" width="40" height="40" as="geometry" />
        </mxCell>
        <mxCell id="Mb3yHgcJe4T5eNl-yDP2-77" value="Yes" style="text;html=1;align=center;verticalAlign=middle;whiteSpace=wrap;rounded=0;" parent="1" vertex="1">
          <mxGeometry x="610" y="740" width="30" height="10" as="geometry" />
        </mxCell>
        <mxCell id="Mb3yHgcJe4T5eNl-yDP2-78" value="No" style="text;html=1;align=center;verticalAlign=middle;whiteSpace=wrap;rounded=0;" parent="1" vertex="1">
          <mxGeometry x="524" y="740" width="30" height="10" as="geometry" />
        </mxCell>
        <mxCell id="Mb3yHgcJe4T5eNl-yDP2-79" value="" style="edgeStyle=orthogonalEdgeStyle;rounded=0;orthogonalLoop=1;jettySize=auto;html=1;" parent="1" source="Mb3yHgcJe4T5eNl-yDP2-80" target="Mb3yHgcJe4T5eNl-yDP2-82" edge="1">
          <mxGeometry relative="1" as="geometry" />
        </mxCell>
        <mxCell id="Mb3yHgcJe4T5eNl-yDP2-80" value="Bắt đầu" style="rounded=1;whiteSpace=wrap;html=1;" parent="1" vertex="1">
          <mxGeometry x="120" y="440" width="80" height="40" as="geometry" />
        </mxCell>
        <mxCell id="Mb3yHgcJe4T5eNl-yDP2-81" value="" style="edgeStyle=orthogonalEdgeStyle;rounded=0;orthogonalLoop=1;jettySize=auto;html=1;" parent="1" source="Mb3yHgcJe4T5eNl-yDP2-82" target="Mb3yHgcJe4T5eNl-yDP2-16" edge="1">
          <mxGeometry relative="1" as="geometry" />
        </mxCell>
        <mxCell id="Mb3yHgcJe4T5eNl-yDP2-82" value="Lấy dữ liệu từ openweathermap.org" style="rounded=0;whiteSpace=wrap;html=1;" parent="1" vertex="1">
          <mxGeometry x="80.5" y="560" width="159" height="40" as="geometry" />
        </mxCell>
        <mxCell id="Mb3yHgcJe4T5eNl-yDP2-83" value="Delay 60s" style="rounded=0;whiteSpace=wrap;html=1;" parent="1" vertex="1">
          <mxGeometry x="20" y="500" width="80" height="40" as="geometry" />
        </mxCell>
        <mxCell id="Mb3yHgcJe4T5eNl-yDP2-84" value="Truy xuất dữ liệu của từng thiết bị theo ngày hoặc theo phòng" style="rhombus;whiteSpace=wrap;html=1;" parent="1" vertex="1">
          <mxGeometry x="281" y="960" width="119" height="120" as="geometry" />
        </mxCell>
        <mxCell id="Mb3yHgcJe4T5eNl-yDP2-85" value="Yes" style="text;html=1;align=center;verticalAlign=middle;whiteSpace=wrap;rounded=0;" parent="1" vertex="1">
          <mxGeometry x="401" y="1000" width="30" height="10" as="geometry" />
        </mxCell>
        <mxCell id="Mb3yHgcJe4T5eNl-yDP2-86" value="No" style="text;html=1;align=center;verticalAlign=middle;whiteSpace=wrap;rounded=0;" parent="1" vertex="1">
          <mxGeometry x="341" y="1090" width="30" height="10" as="geometry" />
        </mxCell>
        <mxCell id="Mb3yHgcJe4T5eNl-yDP2-87" value="Xuất dữ liệu thành bảng chi tiết" style="rounded=0;whiteSpace=wrap;html=1;" parent="1" vertex="1">
          <mxGeometry x="479" y="960" width="120" height="40" as="geometry" />
        </mxCell>
        <mxCell id="Mb3yHgcJe4T5eNl-yDP2-88" value="Xuất dữ liệu thành biểu đồ cột cho từng thiết bị" style="rounded=0;whiteSpace=wrap;html=1;" parent="1" vertex="1">
          <mxGeometry x="479" y="1040" width="120" height="40" as="geometry" />
        </mxCell>
        <mxCell id="Mb3yHgcJe4T5eNl-yDP2-89" value="" style="endArrow=classic;html=1;rounded=0;exitX=1;exitY=0.5;exitDx=0;exitDy=0;" parent="1" source="Mb3yHgcJe4T5eNl-yDP2-84" edge="1">
          <mxGeometry width="50" height="50" relative="1" as="geometry">
            <mxPoint x="391" y="1030" as="sourcePoint" />
            <mxPoint x="440" y="1020" as="targetPoint" />
          </mxGeometry>
        </mxCell>
        <mxCell id="Mb3yHgcJe4T5eNl-yDP2-90" value="" style="endArrow=classic;html=1;rounded=0;" parent="1" edge="1">
          <mxGeometry width="50" height="50" relative="1" as="geometry">
            <mxPoint x="440" y="1020" as="sourcePoint" />
            <mxPoint x="479" y="980" as="targetPoint" />
            <Array as="points">
              <mxPoint x="440" y="980" />
            </Array>
          </mxGeometry>
        </mxCell>
        <mxCell id="Mb3yHgcJe4T5eNl-yDP2-91" value="" style="endArrow=classic;html=1;rounded=0;" parent="1" edge="1">
          <mxGeometry width="50" height="50" relative="1" as="geometry">
            <mxPoint x="440" y="1020" as="sourcePoint" />
            <mxPoint x="479" y="1060" as="targetPoint" />
            <Array as="points">
              <mxPoint x="440" y="1060" />
            </Array>
          </mxGeometry>
        </mxCell>
        <mxCell id="Mb3yHgcJe4T5eNl-yDP2-92" value="" style="endArrow=classic;html=1;rounded=0;" parent="1" edge="1">
          <mxGeometry width="50" height="50" relative="1" as="geometry">
            <mxPoint x="599" y="980" as="sourcePoint" />
            <mxPoint x="800" y="980" as="targetPoint" />
          </mxGeometry>
        </mxCell>
        <mxCell id="Mb3yHgcJe4T5eNl-yDP2-93" value="" style="endArrow=classic;html=1;rounded=0;" parent="1" edge="1">
          <mxGeometry width="50" height="50" relative="1" as="geometry">
            <mxPoint x="600" y="1059.8" as="sourcePoint" />
            <mxPoint x="801" y="1059.8" as="targetPoint" />
          </mxGeometry>
        </mxCell>
        <mxCell id="Mb3yHgcJe4T5eNl-yDP2-94" value="" style="endArrow=classic;html=1;rounded=0;" parent="1" edge="1">
          <mxGeometry width="50" height="50" relative="1" as="geometry">
            <mxPoint x="400" y="820" as="sourcePoint" />
            <mxPoint x="800" y="820" as="targetPoint" />
          </mxGeometry>
        </mxCell>
        <mxCell id="Mb3yHgcJe4T5eNl-yDP2-95" value="" style="endArrow=classic;html=1;rounded=0;" parent="1" edge="1">
          <mxGeometry width="50" height="50" relative="1" as="geometry">
            <mxPoint x="51" y="1120" as="sourcePoint" />
            <mxPoint x="341" y="1120" as="targetPoint" />
          </mxGeometry>
        </mxCell>
        <mxCell id="Mb3yHgcJe4T5eNl-yDP2-96" value="" style="endArrow=classic;html=1;rounded=0;exitX=0.5;exitY=1;exitDx=0;exitDy=0;" parent="1" edge="1">
          <mxGeometry width="50" height="50" relative="1" as="geometry">
            <mxPoint x="49" y="800" as="sourcePoint" />
            <mxPoint x="50" y="1120" as="targetPoint" />
          </mxGeometry>
        </mxCell>
        <mxCell id="Mb3yHgcJe4T5eNl-yDP2-97" value="" style="endArrow=classic;html=1;rounded=0;exitX=0.5;exitY=1;exitDx=0;exitDy=0;" parent="1" edge="1">
          <mxGeometry width="50" height="50" relative="1" as="geometry">
            <mxPoint x="128.5" y="800" as="sourcePoint" />
            <mxPoint x="129.5" y="1120" as="targetPoint" />
          </mxGeometry>
        </mxCell>
        <mxCell id="Mb3yHgcJe4T5eNl-yDP2-98" value="" style="endArrow=classic;html=1;rounded=0;exitX=0.5;exitY=1;exitDx=0;exitDy=0;" parent="1" edge="1">
          <mxGeometry width="50" height="50" relative="1" as="geometry">
            <mxPoint x="182" y="800" as="sourcePoint" />
            <mxPoint x="183" y="1120" as="targetPoint" />
          </mxGeometry>
        </mxCell>
        <mxCell id="Mb3yHgcJe4T5eNl-yDP2-99" value="" style="endArrow=classic;html=1;rounded=0;exitX=0.5;exitY=1;exitDx=0;exitDy=0;" parent="1" edge="1">
          <mxGeometry width="50" height="50" relative="1" as="geometry">
            <mxPoint x="261.5" y="800" as="sourcePoint" />
            <mxPoint x="262.5" y="1120" as="targetPoint" />
          </mxGeometry>
        </mxCell>
        <mxCell id="Mb3yHgcJe4T5eNl-yDP2-100" value="" style="endArrow=classic;html=1;rounded=0;entryX=0.5;entryY=0;entryDx=0;entryDy=0;" parent="1" target="Mb3yHgcJe4T5eNl-yDP2-42" edge="1">
          <mxGeometry width="50" height="50" relative="1" as="geometry">
            <mxPoint x="440" y="660" as="sourcePoint" />
            <mxPoint x="491" y="610" as="targetPoint" />
          </mxGeometry>
        </mxCell>
        <mxCell id="Mb3yHgcJe4T5eNl-yDP2-101" value="" style="endArrow=classic;html=1;rounded=0;entryX=0.5;entryY=0;entryDx=0;entryDy=0;" parent="1" edge="1">
          <mxGeometry width="50" height="50" relative="1" as="geometry">
            <mxPoint x="579.9399999999999" y="660" as="sourcePoint" />
            <mxPoint x="579.9399999999999" y="680" as="targetPoint" />
          </mxGeometry>
        </mxCell>
        <mxCell id="Mb3yHgcJe4T5eNl-yDP2-102" value="" style="endArrow=classic;html=1;rounded=0;entryX=0.5;entryY=0;entryDx=0;entryDy=0;" parent="1" edge="1">
          <mxGeometry width="50" height="50" relative="1" as="geometry">
            <mxPoint x="222" y="660" as="sourcePoint" />
            <mxPoint x="221.93" y="680" as="targetPoint" />
          </mxGeometry>
        </mxCell>
        <mxCell id="Mb3yHgcJe4T5eNl-yDP2-103" value="" style="endArrow=classic;html=1;rounded=0;entryX=0.5;entryY=0;entryDx=0;entryDy=0;" parent="1" edge="1">
          <mxGeometry width="50" height="50" relative="1" as="geometry">
            <mxPoint x="88.80000000000001" y="660" as="sourcePoint" />
            <mxPoint x="88.80000000000001" y="680" as="targetPoint" />
          </mxGeometry>
        </mxCell>
        <mxCell id="Mb3yHgcJe4T5eNl-yDP2-104" value="" style="endArrow=classic;html=1;rounded=0;entryX=0.5;entryY=0;entryDx=0;entryDy=0;" parent="1" edge="1">
          <mxGeometry width="50" height="50" relative="1" as="geometry">
            <mxPoint x="719.61" y="660" as="sourcePoint" />
            <mxPoint x="719.61" y="680" as="targetPoint" />
          </mxGeometry>
        </mxCell>
        <mxCell id="Mb3yHgcJe4T5eNl-yDP2-105" value="" style="edgeStyle=orthogonalEdgeStyle;rounded=0;orthogonalLoop=1;jettySize=auto;html=1;" parent="1" edge="1">
          <mxGeometry relative="1" as="geometry">
            <mxPoint x="401" y="659.8" as="sourcePoint" />
            <mxPoint x="440" y="660" as="targetPoint" />
          </mxGeometry>
        </mxCell>
        <mxCell id="Mb3yHgcJe4T5eNl-yDP2-106" value="" style="edgeStyle=orthogonalEdgeStyle;rounded=0;orthogonalLoop=1;jettySize=auto;html=1;" parent="1" edge="1">
          <mxGeometry relative="1" as="geometry">
            <mxPoint x="440" y="660" as="sourcePoint" />
            <mxPoint x="580" y="660" as="targetPoint" />
          </mxGeometry>
        </mxCell>
        <mxCell id="Mb3yHgcJe4T5eNl-yDP2-107" value="" style="edgeStyle=orthogonalEdgeStyle;rounded=0;orthogonalLoop=1;jettySize=auto;html=1;" parent="1" edge="1">
          <mxGeometry relative="1" as="geometry">
            <mxPoint x="580" y="660" as="sourcePoint" />
            <mxPoint x="720" y="659.84" as="targetPoint" />
          </mxGeometry>
        </mxCell>
        <mxCell id="Mb3yHgcJe4T5eNl-yDP2-108" value="" style="endArrow=classic;html=1;rounded=0;" parent="1" edge="1">
          <mxGeometry width="50" height="50" relative="1" as="geometry">
            <mxPoint x="280" y="660" as="sourcePoint" />
            <mxPoint x="222" y="660" as="targetPoint" />
          </mxGeometry>
        </mxCell>
        <mxCell id="Mb3yHgcJe4T5eNl-yDP2-109" value="" style="endArrow=classic;html=1;rounded=0;" parent="1" edge="1">
          <mxGeometry width="50" height="50" relative="1" as="geometry">
            <mxPoint x="221" y="659.9" as="sourcePoint" />
            <mxPoint x="90" y="659.9" as="targetPoint" />
          </mxGeometry>
        </mxCell>
        <mxCell id="Mb3yHgcJe4T5eNl-yDP2-110" value="Bật Buzzer trong 2s rồi tắt" style="rounded=0;whiteSpace=wrap;html=1;" parent="1" vertex="1">
          <mxGeometry x="639" y="480" width="121" height="40" as="geometry" />
        </mxCell>
        <mxCell id="Mb3yHgcJe4T5eNl-yDP2-111" value="" style="endArrow=classic;html=1;rounded=0;entryX=0.5;entryY=0;entryDx=0;entryDy=0;" parent="1" edge="1">
          <mxGeometry width="50" height="50" relative="1" as="geometry">
            <mxPoint x="401" y="800" as="sourcePoint" />
            <mxPoint x="401" y="820" as="targetPoint" />
          </mxGeometry>
        </mxCell>
        <mxCell id="Mb3yHgcJe4T5eNl-yDP2-112" value="" style="endArrow=classic;html=1;rounded=0;entryX=0.5;entryY=0;entryDx=0;entryDy=0;" parent="1" edge="1">
          <mxGeometry width="50" height="50" relative="1" as="geometry">
            <mxPoint x="478.69" y="800" as="sourcePoint" />
            <mxPoint x="478.69" y="820" as="targetPoint" />
          </mxGeometry>
        </mxCell>
        <mxCell id="Mb3yHgcJe4T5eNl-yDP2-113" value="" style="endArrow=classic;html=1;rounded=0;entryX=0.5;entryY=0;entryDx=0;entryDy=0;" parent="1" edge="1">
          <mxGeometry width="50" height="50" relative="1" as="geometry">
            <mxPoint x="538.84" y="800" as="sourcePoint" />
            <mxPoint x="538.84" y="820" as="targetPoint" />
          </mxGeometry>
        </mxCell>
        <mxCell id="Mb3yHgcJe4T5eNl-yDP2-114" value="" style="endArrow=classic;html=1;rounded=0;entryX=0.5;entryY=0;entryDx=0;entryDy=0;" parent="1" edge="1">
          <mxGeometry width="50" height="50" relative="1" as="geometry">
            <mxPoint x="619.84" y="800" as="sourcePoint" />
            <mxPoint x="619.84" y="820" as="targetPoint" />
          </mxGeometry>
        </mxCell>
        <mxCell id="Mb3yHgcJe4T5eNl-yDP2-115" value="" style="endArrow=classic;html=1;rounded=0;entryX=0.5;entryY=0;entryDx=0;entryDy=0;" parent="1" edge="1">
          <mxGeometry width="50" height="50" relative="1" as="geometry">
            <mxPoint x="680" y="800" as="sourcePoint" />
            <mxPoint x="680" y="820" as="targetPoint" />
          </mxGeometry>
        </mxCell>
        <mxCell id="Mb3yHgcJe4T5eNl-yDP2-116" value="" style="endArrow=classic;html=1;rounded=0;entryX=0.5;entryY=0;entryDx=0;entryDy=0;" parent="1" edge="1">
          <mxGeometry width="50" height="50" relative="1" as="geometry">
            <mxPoint x="760" y="800" as="sourcePoint" />
            <mxPoint x="760" y="820" as="targetPoint" />
          </mxGeometry>
        </mxCell>
        <mxCell id="Mb3yHgcJe4T5eNl-yDP2-117" value="" style="endArrow=classic;html=1;rounded=0;" parent="1" edge="1">
          <mxGeometry width="50" height="50" relative="1" as="geometry">
            <mxPoint x="341.40000000000003" y="1080" as="sourcePoint" />
            <mxPoint x="341" y="1120" as="targetPoint" />
          </mxGeometry>
        </mxCell>
        <mxCell id="Mb3yHgcJe4T5eNl-yDP2-118" value="" style="endArrow=classic;html=1;rounded=0;" parent="1" edge="1">
          <mxGeometry width="50" height="50" relative="1" as="geometry">
            <mxPoint x="560.91" y="380" as="sourcePoint" />
            <mxPoint x="560.91" y="360" as="targetPoint" />
          </mxGeometry>
        </mxCell>
        <mxCell id="Mb3yHgcJe4T5eNl-yDP2-119" value="" style="endArrow=classic;html=1;rounded=0;" parent="1" edge="1">
          <mxGeometry width="50" height="50" relative="1" as="geometry">
            <mxPoint x="719.8299999999999" y="380" as="sourcePoint" />
            <mxPoint x="719.8299999999999" y="360" as="targetPoint" />
          </mxGeometry>
        </mxCell>
        <mxCell id="Mb3yHgcJe4T5eNl-yDP2-120" value="" style="endArrow=classic;html=1;rounded=0;entryX=1;entryY=1;entryDx=0;entryDy=0;" parent="1" target="Mb3yHgcJe4T5eNl-yDP2-31" edge="1">
          <mxGeometry width="50" height="50" relative="1" as="geometry">
            <mxPoint x="540" y="300" as="sourcePoint" />
            <mxPoint x="540" y="280" as="targetPoint" />
          </mxGeometry>
        </mxCell>
        <mxCell id="Mb3yHgcJe4T5eNl-yDP2-121" value="" style="endArrow=classic;html=1;rounded=0;entryX=0;entryY=1;entryDx=0;entryDy=0;" parent="1" target="Mb3yHgcJe4T5eNl-yDP2-24" edge="1">
          <mxGeometry width="50" height="50" relative="1" as="geometry">
            <mxPoint x="581.5799999999999" y="300" as="sourcePoint" />
            <mxPoint x="581.5799999999999" y="280" as="targetPoint" />
          </mxGeometry>
        </mxCell>
        <mxCell id="Mb3yHgcJe4T5eNl-yDP2-122" value="" style="endArrow=classic;html=1;rounded=0;entryX=1;entryY=1;entryDx=0;entryDy=0;" parent="1" target="Mb3yHgcJe4T5eNl-yDP2-26" edge="1">
          <mxGeometry width="50" height="50" relative="1" as="geometry">
            <mxPoint x="699.8299999999999" y="300" as="sourcePoint" />
            <mxPoint x="699.8299999999999" y="280" as="targetPoint" />
          </mxGeometry>
        </mxCell>
        <mxCell id="Mb3yHgcJe4T5eNl-yDP2-123" value="" style="endArrow=classic;html=1;rounded=0;entryX=0;entryY=1;entryDx=0;entryDy=0;" parent="1" target="Mb3yHgcJe4T5eNl-yDP2-27" edge="1">
          <mxGeometry width="50" height="50" relative="1" as="geometry">
            <mxPoint x="739.91" y="300" as="sourcePoint" />
            <mxPoint x="739.91" y="280" as="targetPoint" />
          </mxGeometry>
        </mxCell>
        <mxCell id="Mb3yHgcJe4T5eNl-yDP2-124" value="" style="endArrow=classic;html=1;rounded=0;exitX=1;exitY=0.5;exitDx=0;exitDy=0;" parent="1" edge="1">
          <mxGeometry width="50" height="50" relative="1" as="geometry">
            <mxPoint x="560" y="380" as="sourcePoint" />
            <mxPoint x="719" y="380.09000000000003" as="targetPoint" />
          </mxGeometry>
        </mxCell>
        <mxCell id="Mb3yHgcJe4T5eNl-yDP2-125" value="Thông báo lên màn hình giao diện" style="rounded=0;whiteSpace=wrap;html=1;" parent="1" vertex="1">
          <mxGeometry x="640" y="420" width="121" height="40" as="geometry" />
        </mxCell>
        <mxCell id="Mb3yHgcJe4T5eNl-yDP2-126" value="" style="endArrow=classic;html=1;rounded=0;entryX=0;entryY=0.5;entryDx=0;entryDy=0;" parent="1" target="Mb3yHgcJe4T5eNl-yDP2-125" edge="1">
          <mxGeometry width="50" height="50" relative="1" as="geometry">
            <mxPoint x="600" y="480" as="sourcePoint" />
            <mxPoint x="539" y="430" as="targetPoint" />
            <Array as="points">
              <mxPoint x="600" y="440" />
            </Array>
          </mxGeometry>
        </mxCell>
        <mxCell id="Mb3yHgcJe4T5eNl-yDP2-127" value="" style="endArrow=classic;html=1;rounded=0;exitX=1;exitY=0.5;exitDx=0;exitDy=0;" parent="1" source="Mb3yHgcJe4T5eNl-yDP2-58" edge="1">
          <mxGeometry width="50" height="50" relative="1" as="geometry">
            <mxPoint x="558" y="500" as="sourcePoint" />
            <mxPoint x="600" y="480" as="targetPoint" />
          </mxGeometry>
        </mxCell>
        <mxCell id="Mb3yHgcJe4T5eNl-yDP2-128" value="" style="endArrow=classic;html=1;rounded=0;entryX=0;entryY=0.5;entryDx=0;entryDy=0;" parent="1" target="Mb3yHgcJe4T5eNl-yDP2-110" edge="1">
          <mxGeometry width="50" height="50" relative="1" as="geometry">
            <mxPoint x="600" y="480" as="sourcePoint" />
            <mxPoint x="638" y="539.85" as="targetPoint" />
            <Array as="points">
              <mxPoint x="600" y="500" />
            </Array>
          </mxGeometry>
        </mxCell>
        <mxCell id="Mb3yHgcJe4T5eNl-yDP2-129" value="" style="endArrow=classic;html=1;rounded=0;entryX=0;entryY=0.5;entryDx=0;entryDy=0;" parent="1" edge="1">
          <mxGeometry width="50" height="50" relative="1" as="geometry">
            <mxPoint x="761" y="439.78" as="sourcePoint" />
            <mxPoint x="801" y="439.78" as="targetPoint" />
          </mxGeometry>
        </mxCell>
        <mxCell id="Mb3yHgcJe4T5eNl-yDP2-130" value="" style="endArrow=classic;html=1;rounded=0;entryX=0;entryY=0.5;entryDx=0;entryDy=0;" parent="1" edge="1">
          <mxGeometry width="50" height="50" relative="1" as="geometry">
            <mxPoint x="760" y="499.89" as="sourcePoint" />
            <mxPoint x="800" y="499.89" as="targetPoint" />
          </mxGeometry>
        </mxCell>
        <mxCell id="Mb3yHgcJe4T5eNl-yDP2-131" value="" style="endArrow=classic;html=1;rounded=0;exitX=0.5;exitY=0;exitDx=0;exitDy=0;" parent="1" source="Mb3yHgcJe4T5eNl-yDP2-58" edge="1">
          <mxGeometry width="50" height="50" relative="1" as="geometry">
            <mxPoint x="519" y="450" as="sourcePoint" />
            <mxPoint x="799" y="400" as="targetPoint" />
            <Array as="points">
              <mxPoint x="479" y="400" />
            </Array>
          </mxGeometry>
        </mxCell>
        <mxCell id="Mb3yHgcJe4T5eNl-yDP2-133" value="" style="endArrow=classic;html=1;rounded=0;exitX=1;exitY=0.5;exitDx=0;exitDy=0;" parent="1" source="Mb3yHgcJe4T5eNl-yDP2-83" edge="1">
          <mxGeometry width="50" height="50" relative="1" as="geometry">
            <mxPoint x="190" y="550" as="sourcePoint" />
            <mxPoint x="160" y="520" as="targetPoint" />
          </mxGeometry>
        </mxCell>
        <mxCell id="Mb3yHgcJe4T5eNl-yDP2-134" value="" style="endArrow=classic;html=1;rounded=0;" parent="1" edge="1">
          <mxGeometry width="50" height="50" relative="1" as="geometry">
            <mxPoint x="80" y="600" as="sourcePoint" />
            <mxPoint x="60" y="540" as="targetPoint" />
            <Array as="points">
              <mxPoint x="60" y="600" />
            </Array>
          </mxGeometry>
        </mxCell>
        <mxCell id="Mb3yHgcJe4T5eNl-yDP2-135" value="Đến thời gian đã chọn đèn sẽ tự bật/tắt" style="rounded=0;whiteSpace=wrap;html=1;" parent="1" vertex="1">
          <mxGeometry x="640" y="540" width="121" height="40" as="geometry" />
        </mxCell>
        <mxCell id="Mb3yHgcJe4T5eNl-yDP2-136" value="Chọn thời gian bật/ tắt đèn" style="rhombus;whiteSpace=wrap;html=1;" parent="1" vertex="1">
          <mxGeometry x="540" y="565" width="80" height="80" as="geometry" />
        </mxCell>
        <mxCell id="Mb3yHgcJe4T5eNl-yDP2-137" value="Yes" style="text;html=1;align=center;verticalAlign=middle;whiteSpace=wrap;rounded=0;" parent="1" vertex="1">
          <mxGeometry x="591.58" y="540" width="30" height="10" as="geometry" />
        </mxCell>
        <mxCell id="Mb3yHgcJe4T5eNl-yDP2-138" value="No" style="text;html=1;align=center;verticalAlign=middle;whiteSpace=wrap;rounded=0;" parent="1" vertex="1">
          <mxGeometry x="614" y="590" width="30" height="10" as="geometry" />
        </mxCell>
        <mxCell id="Mb3yHgcJe4T5eNl-yDP2-139" value="" style="edgeStyle=orthogonalEdgeStyle;rounded=0;orthogonalLoop=1;jettySize=auto;html=1;" parent="1" edge="1">
          <mxGeometry relative="1" as="geometry">
            <mxPoint x="620" y="604.6700000000001" as="sourcePoint" />
            <mxPoint x="800" y="604.83" as="targetPoint" />
          </mxGeometry>
        </mxCell>
        <mxCell id="Mb3yHgcJe4T5eNl-yDP2-140" value="" style="endArrow=classic;html=1;rounded=0;entryX=0;entryY=0.5;entryDx=0;entryDy=0;" parent="1" edge="1">
          <mxGeometry width="50" height="50" relative="1" as="geometry">
            <mxPoint x="761" y="559.59" as="sourcePoint" />
            <mxPoint x="801" y="559.59" as="targetPoint" />
          </mxGeometry>
        </mxCell>
        <mxCell id="Mb3yHgcJe4T5eNl-yDP2-141" value="" style="endArrow=classic;html=1;rounded=0;entryX=0;entryY=0.5;entryDx=0;entryDy=0;" parent="1" source="Mb3yHgcJe4T5eNl-yDP2-136" edge="1">
          <mxGeometry width="50" height="50" relative="1" as="geometry">
            <mxPoint x="599" y="559.94" as="sourcePoint" />
            <mxPoint x="639" y="559.94" as="targetPoint" />
            <Array as="points">
              <mxPoint x="580" y="560" />
            </Array>
          </mxGeometry>
        </mxCell>
        <mxCell id="Mb3yHgcJe4T5eNl-yDP2-142" value="" style="endArrow=classic;html=1;rounded=0;entryX=0.5;entryY=1;entryDx=0;entryDy=0;" parent="1" target="Mb3yHgcJe4T5eNl-yDP2-136" edge="1">
          <mxGeometry width="50" height="50" relative="1" as="geometry">
            <mxPoint x="579.9000000000001" y="660" as="sourcePoint" />
            <mxPoint x="579.9000000000001" y="650" as="targetPoint" />
          </mxGeometry>
        </mxCell>
        <mxCell id="Mb3yHgcJe4T5eNl-yDP2-143" value="" style="endArrow=classic;html=1;rounded=0;" parent="1" edge="1">
          <mxGeometry width="50" height="50" relative="1" as="geometry">
            <mxPoint x="520.12" y="240" as="sourcePoint" />
            <mxPoint x="519.87" y="220" as="targetPoint" />
          </mxGeometry>
        </mxCell>
        <mxCell id="Mb3yHgcJe4T5eNl-yDP2-144" value="" style="endArrow=classic;html=1;rounded=0;" parent="1" edge="1">
          <mxGeometry width="50" height="50" relative="1" as="geometry">
            <mxPoint x="601.25" y="240" as="sourcePoint" />
            <mxPoint x="601" y="220" as="targetPoint" />
          </mxGeometry>
        </mxCell>
        <mxCell id="Mb3yHgcJe4T5eNl-yDP2-145" value="" style="endArrow=classic;html=1;rounded=0;" parent="1" edge="1">
          <mxGeometry width="50" height="50" relative="1" as="geometry">
            <mxPoint x="680" y="240" as="sourcePoint" />
            <mxPoint x="679.75" y="220" as="targetPoint" />
          </mxGeometry>
        </mxCell>
        <mxCell id="Mb3yHgcJe4T5eNl-yDP2-146" value="" style="endArrow=classic;html=1;rounded=0;" parent="1" edge="1">
          <mxGeometry width="50" height="50" relative="1" as="geometry">
            <mxPoint x="760" y="240" as="sourcePoint" />
            <mxPoint x="759.75" y="220" as="targetPoint" />
          </mxGeometry>
        </mxCell>
        <mxCell id="kdEcA387sqZ5ZPi28OR_-1" value="Nhiệt độ vượt ngưỡng" style="rhombus;whiteSpace=wrap;html=1;" parent="1" vertex="1">
          <mxGeometry x="41.000000000000014" y="360" width="80" height="80" as="geometry" />
        </mxCell>
        <mxCell id="kdEcA387sqZ5ZPi28OR_-2" value="Bật&lt;div&gt;quạt&lt;/div&gt;" style="ellipse;whiteSpace=wrap;html=1;aspect=fixed;" parent="1" vertex="1">
          <mxGeometry x="100.00000000000006" y="320" width="40" height="40" as="geometry" />
        </mxCell>
        <mxCell id="kdEcA387sqZ5ZPi28OR_-3" value="Tắt&lt;div&gt;quạt&lt;/div&gt;" style="ellipse;whiteSpace=wrap;html=1;aspect=fixed;" parent="1" vertex="1">
          <mxGeometry x="20.00000000000007" y="320" width="40" height="40" as="geometry" />
        </mxCell>
        <mxCell id="kdEcA387sqZ5ZPi28OR_-4" value="Yes" style="text;html=1;align=center;verticalAlign=middle;whiteSpace=wrap;rounded=0;" parent="1" vertex="1">
          <mxGeometry x="121.00000000000001" y="370" width="30" height="10" as="geometry" />
        </mxCell>
        <mxCell id="kdEcA387sqZ5ZPi28OR_-5" value="No" style="text;html=1;align=center;verticalAlign=middle;whiteSpace=wrap;rounded=0;" parent="1" vertex="1">
          <mxGeometry x="11.000000000000014" y="370" width="30" height="10" as="geometry" />
        </mxCell>
        <mxCell id="kdEcA387sqZ5ZPi28OR_-6" value="" style="endArrow=classic;html=1;rounded=0;entryX=0.5;entryY=1;entryDx=0;entryDy=0;" parent="1" target="kdEcA387sqZ5ZPi28OR_-3" edge="1">
          <mxGeometry width="50" height="50" relative="1" as="geometry">
            <mxPoint x="60.000000000000014" y="380" as="sourcePoint" />
            <mxPoint x="60.000000000000014" y="360" as="targetPoint" />
          </mxGeometry>
        </mxCell>
        <mxCell id="kdEcA387sqZ5ZPi28OR_-7" value="" style="endArrow=classic;html=1;rounded=0;entryX=0.5;entryY=1;entryDx=0;entryDy=0;" parent="1" target="kdEcA387sqZ5ZPi28OR_-2" edge="1">
          <mxGeometry width="50" height="50" relative="1" as="geometry">
            <mxPoint x="101.57999999999994" y="380" as="sourcePoint" />
            <mxPoint x="101.57999999999994" y="360" as="targetPoint" />
          </mxGeometry>
        </mxCell>
        <mxCell id="kdEcA387sqZ5ZPi28OR_-8" value="" style="endArrow=classic;html=1;rounded=0;" parent="1" edge="1">
          <mxGeometry width="50" height="50" relative="1" as="geometry">
            <mxPoint x="40.12000000000002" y="320" as="sourcePoint" />
            <mxPoint x="39.87000000000002" y="300" as="targetPoint" />
          </mxGeometry>
        </mxCell>
        <mxCell id="kdEcA387sqZ5ZPi28OR_-9" value="" style="endArrow=classic;html=1;rounded=0;" parent="1" edge="1">
          <mxGeometry width="50" height="50" relative="1" as="geometry">
            <mxPoint x="121.25000000000001" y="320" as="sourcePoint" />
            <mxPoint x="121.00000000000001" y="300" as="targetPoint" />
          </mxGeometry>
        </mxCell>
        <mxCell id="kdEcA387sqZ5ZPi28OR_-10" value="" style="endArrow=classic;html=1;rounded=0;" parent="1" edge="1">
          <mxGeometry width="50" height="50" relative="1" as="geometry">
            <mxPoint x="41" y="300" as="sourcePoint" />
            <mxPoint x="280" y="330" as="targetPoint" />
            <Array as="points">
              <mxPoint x="240" y="300" />
              <mxPoint x="240" y="330" />
            </Array>
          </mxGeometry>
        </mxCell>
        <mxCell id="kdEcA387sqZ5ZPi28OR_-11" value="" style="endArrow=classic;html=1;rounded=0;entryX=1;entryY=0.5;entryDx=0;entryDy=0;" parent="1" target="kdEcA387sqZ5ZPi28OR_-1" edge="1">
          <mxGeometry width="50" height="50" relative="1" as="geometry">
            <mxPoint x="280" y="350" as="sourcePoint" />
            <mxPoint x="247" y="370" as="targetPoint" />
            <Array as="points">
              <mxPoint x="240" y="350" />
              <mxPoint x="240" y="400" />
            </Array>
          </mxGeometry>
        </mxCell>
      </root>
    </mxGraphModel>
  </diagram>
  <diagram id="uoQ0dv2KGu-oRYU8FCsQ" name="Trang-2">
    <mxGraphModel dx="1943" dy="531" grid="0" gridSize="10" guides="1" tooltips="1" connect="1" arrows="1" fold="1" page="1" pageScale="1" pageWidth="827" pageHeight="1169" math="0" shadow="0">
      <root>
        <mxCell id="0" />
        <mxCell id="1" parent="0" />
        <mxCell id="uxmxSCUbVXvSqosHKgBa-3" value="" style="rounded=1;whiteSpace=wrap;html=1;" parent="1" vertex="1">
          <mxGeometry x="29" y="180" width="741" height="190" as="geometry" />
        </mxCell>
        <mxCell id="uxmxSCUbVXvSqosHKgBa-1" value="" style="rounded=1;whiteSpace=wrap;html=1;" parent="1" vertex="1">
          <mxGeometry x="140" y="440" width="550" height="360" as="geometry" />
        </mxCell>
        <mxCell id="oEF5TlpH8QMT3vxbU-CY-1" value="" style="edgeStyle=orthogonalEdgeStyle;rounded=0;orthogonalLoop=1;jettySize=auto;html=1;" parent="1" source="oEF5TlpH8QMT3vxbU-CY-2" target="oEF5TlpH8QMT3vxbU-CY-4" edge="1">
          <mxGeometry relative="1" as="geometry" />
        </mxCell>
        <mxCell id="oEF5TlpH8QMT3vxbU-CY-2" value="Bắt đầu" style="rounded=1;whiteSpace=wrap;html=1;" parent="1" vertex="1">
          <mxGeometry x="-360" y="120" width="80" height="40" as="geometry" />
        </mxCell>
        <mxCell id="oEF5TlpH8QMT3vxbU-CY-4" value="Kết nối Wifi" style="rounded=0;whiteSpace=wrap;html=1;" parent="1" vertex="1">
          <mxGeometry x="-360" y="200" width="80" height="40" as="geometry" />
        </mxCell>
        <mxCell id="oEF5TlpH8QMT3vxbU-CY-11" value="&lt;font style=&quot;font-size: 14px;&quot;&gt;Đọc các dữ liệu của cảm biến thu được&lt;/font&gt;" style="rounded=0;whiteSpace=wrap;html=1;" parent="1" vertex="1">
          <mxGeometry x="320" y="460" width="160" height="40" as="geometry" />
        </mxCell>
        <mxCell id="G1Zh6NWUnZ5h9UOSZoVl-4" value="" style="edgeStyle=orthogonalEdgeStyle;rounded=0;orthogonalLoop=1;jettySize=auto;html=1;" parent="1" source="oEF5TlpH8QMT3vxbU-CY-13" target="9pzH5vz35j8ZPKex2hUR-1" edge="1">
          <mxGeometry relative="1" as="geometry" />
        </mxCell>
        <mxCell id="oEF5TlpH8QMT3vxbU-CY-13" value="Hiển thị các giá trị lên OLED" style="rounded=0;whiteSpace=wrap;html=1;" parent="1" vertex="1">
          <mxGeometry x="-360" y="440" width="80" height="80" as="geometry" />
        </mxCell>
        <mxCell id="oEF5TlpH8QMT3vxbU-CY-20" value="Nút nhấn" style="rounded=0;whiteSpace=wrap;html=1;" parent="1" vertex="1">
          <mxGeometry x="-440" y="380" width="80" height="40" as="geometry" />
        </mxCell>
        <mxCell id="G1Zh6NWUnZ5h9UOSZoVl-29" value="" style="edgeStyle=orthogonalEdgeStyle;rounded=0;orthogonalLoop=1;jettySize=auto;html=1;" parent="1" source="oEF5TlpH8QMT3vxbU-CY-23" target="G1Zh6NWUnZ5h9UOSZoVl-10" edge="1">
          <mxGeometry relative="1" as="geometry" />
        </mxCell>
        <mxCell id="G1Zh6NWUnZ5h9UOSZoVl-30" value="" style="edgeStyle=orthogonalEdgeStyle;rounded=0;orthogonalLoop=1;jettySize=auto;html=1;" parent="1" source="oEF5TlpH8QMT3vxbU-CY-23" target="G1Zh6NWUnZ5h9UOSZoVl-11" edge="1">
          <mxGeometry relative="1" as="geometry" />
        </mxCell>
        <mxCell id="oEF5TlpH8QMT3vxbU-CY-23" value="&lt;font style=&quot;font-size: 14px;&quot;&gt;Nút nhấn đèn = 1&lt;/font&gt;" style="rhombus;whiteSpace=wrap;html=1;" parent="1" vertex="1">
          <mxGeometry x="170.25" y="200" width="70" height="80" as="geometry" />
        </mxCell>
        <mxCell id="G1Zh6NWUnZ5h9UOSZoVl-27" value="" style="edgeStyle=orthogonalEdgeStyle;rounded=0;orthogonalLoop=1;jettySize=auto;html=1;" parent="1" source="oEF5TlpH8QMT3vxbU-CY-25" target="G1Zh6NWUnZ5h9UOSZoVl-12" edge="1">
          <mxGeometry relative="1" as="geometry" />
        </mxCell>
        <mxCell id="G1Zh6NWUnZ5h9UOSZoVl-28" value="" style="edgeStyle=orthogonalEdgeStyle;rounded=0;orthogonalLoop=1;jettySize=auto;html=1;" parent="1" source="oEF5TlpH8QMT3vxbU-CY-25" target="G1Zh6NWUnZ5h9UOSZoVl-13" edge="1">
          <mxGeometry relative="1" as="geometry" />
        </mxCell>
        <mxCell id="oEF5TlpH8QMT3vxbU-CY-25" value="&lt;font style=&quot;font-size: 14px;&quot;&gt;Nút nhấn quạt = 1&lt;/font&gt;" style="rhombus;whiteSpace=wrap;html=1;" parent="1" vertex="1">
          <mxGeometry x="558.75" y="200" width="70" height="80" as="geometry" />
        </mxCell>
        <mxCell id="oEF5TlpH8QMT3vxbU-CY-48" value="&lt;font style=&quot;font-size: 14px;&quot;&gt;Yes&lt;/font&gt;" style="text;html=1;align=center;verticalAlign=middle;whiteSpace=wrap;rounded=0;" parent="1" vertex="1">
          <mxGeometry x="170.25" y="285" width="30" height="10" as="geometry" />
        </mxCell>
        <mxCell id="oEF5TlpH8QMT3vxbU-CY-53" value="&lt;font style=&quot;font-size: 14px;&quot;&gt;No&lt;/font&gt;" style="text;html=1;align=center;verticalAlign=middle;whiteSpace=wrap;rounded=0;" parent="1" vertex="1">
          <mxGeometry x="129" y="220" width="30" height="10" as="geometry" />
        </mxCell>
        <mxCell id="oEF5TlpH8QMT3vxbU-CY-57" value="&lt;font style=&quot;font-size: 14px;&quot;&gt;Khí gas vượt ngưỡng&lt;/font&gt;" style="rhombus;whiteSpace=wrap;html=1;" parent="1" vertex="1">
          <mxGeometry x="359" y="560" width="80" height="80" as="geometry" />
        </mxCell>
        <mxCell id="oEF5TlpH8QMT3vxbU-CY-58" value="&lt;font style=&quot;font-size: 14px;&quot;&gt;Yes&lt;/font&gt;" style="text;html=1;align=center;verticalAlign=middle;whiteSpace=wrap;rounded=0;rotation=0;" parent="1" vertex="1">
          <mxGeometry x="403.75" y="655" width="30" height="10" as="geometry" />
        </mxCell>
        <mxCell id="oEF5TlpH8QMT3vxbU-CY-59" value="No" style="text;html=1;align=center;verticalAlign=middle;whiteSpace=wrap;rounded=0;" parent="1" vertex="1">
          <mxGeometry x="440" y="585" width="30" height="10" as="geometry" />
        </mxCell>
        <mxCell id="oEF5TlpH8QMT3vxbU-CY-109" value="&lt;font style=&quot;font-size: 14px;&quot;&gt;Bật Buzzer trong 2s rồi tắt&lt;/font&gt;" style="rounded=0;whiteSpace=wrap;html=1;" parent="1" vertex="1">
          <mxGeometry x="339" y="720" width="70" height="70" as="geometry" />
        </mxCell>
        <mxCell id="oEF5TlpH8QMT3vxbU-CY-126" value="" style="endArrow=classic;html=1;rounded=0;exitX=1;exitY=0.5;exitDx=0;exitDy=0;" parent="1" edge="1">
          <mxGeometry width="50" height="50" relative="1" as="geometry">
            <mxPoint x="399.25" y="640" as="sourcePoint" />
            <mxPoint x="400" y="680" as="targetPoint" />
          </mxGeometry>
        </mxCell>
        <mxCell id="G1Zh6NWUnZ5h9UOSZoVl-52" value="" style="edgeStyle=orthogonalEdgeStyle;rounded=0;orthogonalLoop=1;jettySize=auto;html=1;" parent="1" source="gUwbfTGFbtjML-2vQVPs-1" target="G1Zh6NWUnZ5h9UOSZoVl-50" edge="1">
          <mxGeometry relative="1" as="geometry" />
        </mxCell>
        <mxCell id="G1Zh6NWUnZ5h9UOSZoVl-53" value="" style="edgeStyle=orthogonalEdgeStyle;rounded=0;orthogonalLoop=1;jettySize=auto;html=1;" parent="1" source="gUwbfTGFbtjML-2vQVPs-1" target="G1Zh6NWUnZ5h9UOSZoVl-44" edge="1">
          <mxGeometry relative="1" as="geometry" />
        </mxCell>
        <mxCell id="gUwbfTGFbtjML-2vQVPs-1" value="&lt;font style=&quot;font-size: 14px;&quot;&gt;Phát hiện có chuyển động&amp;nbsp;&lt;/font&gt;" style="rhombus;whiteSpace=wrap;html=1;" parent="1" vertex="1">
          <mxGeometry x="217.75" y="560" width="100.63" height="80" as="geometry" />
        </mxCell>
        <mxCell id="9pzH5vz35j8ZPKex2hUR-1" value="Server" style="rounded=0;whiteSpace=wrap;html=1;" parent="1" vertex="1">
          <mxGeometry x="-360" y="540" width="80" height="40" as="geometry" />
        </mxCell>
        <mxCell id="9pzH5vz35j8ZPKex2hUR-24" value="&lt;font style=&quot;font-size: 14px;&quot;&gt;Server&lt;/font&gt;" style="rounded=0;whiteSpace=wrap;html=1;" parent="1" vertex="1">
          <mxGeometry x="359.5" y="120" width="80.5" height="40" as="geometry" />
        </mxCell>
        <mxCell id="G1Zh6NWUnZ5h9UOSZoVl-54" value="" style="edgeStyle=orthogonalEdgeStyle;rounded=0;orthogonalLoop=1;jettySize=auto;html=1;" parent="1" source="WXAe5ioJpWSOJFFLNOXK-1" target="G1Zh6NWUnZ5h9UOSZoVl-45" edge="1">
          <mxGeometry relative="1" as="geometry" />
        </mxCell>
        <mxCell id="G1Zh6NWUnZ5h9UOSZoVl-55" value="" style="edgeStyle=orthogonalEdgeStyle;rounded=0;orthogonalLoop=1;jettySize=auto;html=1;" parent="1" source="WXAe5ioJpWSOJFFLNOXK-1" target="G1Zh6NWUnZ5h9UOSZoVl-51" edge="1">
          <mxGeometry relative="1" as="geometry" />
        </mxCell>
        <mxCell id="WXAe5ioJpWSOJFFLNOXK-1" value="&lt;font style=&quot;font-size: 14px;&quot;&gt;Trời tối&lt;/font&gt;" style="rhombus;whiteSpace=wrap;html=1;" parent="1" vertex="1">
          <mxGeometry x="519.5" y="560" width="80" height="80" as="geometry" />
        </mxCell>
        <mxCell id="G1Zh6NWUnZ5h9UOSZoVl-23" value="" style="edgeStyle=orthogonalEdgeStyle;rounded=0;orthogonalLoop=1;jettySize=auto;html=1;" parent="1" source="G1Zh6NWUnZ5h9UOSZoVl-1" target="oEF5TlpH8QMT3vxbU-CY-23" edge="1">
          <mxGeometry relative="1" as="geometry" />
        </mxCell>
        <mxCell id="G1Zh6NWUnZ5h9UOSZoVl-1" value="&lt;font style=&quot;font-size: 14px;&quot;&gt;Kiểm tra trạng thái nút nhấn đèn&lt;/font&gt;" style="rounded=0;whiteSpace=wrap;html=1;" parent="1" vertex="1">
          <mxGeometry x="279.5" y="200" width="80" height="80" as="geometry" />
        </mxCell>
        <mxCell id="G1Zh6NWUnZ5h9UOSZoVl-26" value="" style="edgeStyle=orthogonalEdgeStyle;rounded=0;orthogonalLoop=1;jettySize=auto;html=1;" parent="1" source="G1Zh6NWUnZ5h9UOSZoVl-2" target="oEF5TlpH8QMT3vxbU-CY-25" edge="1">
          <mxGeometry relative="1" as="geometry" />
        </mxCell>
        <mxCell id="G1Zh6NWUnZ5h9UOSZoVl-2" value="&lt;font style=&quot;font-size: 14px;&quot;&gt;Kiểm tra trạng thái&amp;nbsp;nút nhấn quạt&lt;/font&gt;" style="rounded=0;whiteSpace=wrap;html=1;" parent="1" vertex="1">
          <mxGeometry x="439.5" y="200" width="80" height="80" as="geometry" />
        </mxCell>
        <mxCell id="G1Zh6NWUnZ5h9UOSZoVl-8" value="" style="edgeStyle=orthogonalEdgeStyle;rounded=0;orthogonalLoop=1;jettySize=auto;html=1;" parent="1" target="oEF5TlpH8QMT3vxbU-CY-20" edge="1">
          <mxGeometry relative="1" as="geometry">
            <mxPoint x="-320" y="360" as="sourcePoint" />
          </mxGeometry>
        </mxCell>
        <mxCell id="G1Zh6NWUnZ5h9UOSZoVl-5" value="Kết nối với Webserver" style="rounded=0;whiteSpace=wrap;html=1;" parent="1" vertex="1">
          <mxGeometry x="-360" y="280" width="80" height="40" as="geometry" />
        </mxCell>
        <mxCell id="G1Zh6NWUnZ5h9UOSZoVl-10" value="&lt;font style=&quot;font-size: 14px;&quot;&gt;Bật đèn&lt;/font&gt;" style="rounded=0;whiteSpace=wrap;html=1;" parent="1" vertex="1">
          <mxGeometry x="185.25" y="320" width="40" height="40" as="geometry" />
        </mxCell>
        <mxCell id="G1Zh6NWUnZ5h9UOSZoVl-11" value="&lt;font style=&quot;font-size: 14px;&quot;&gt;Tắt đèn&lt;/font&gt;" style="rounded=0;whiteSpace=wrap;html=1;" parent="1" vertex="1">
          <mxGeometry x="79" y="220" width="40" height="40" as="geometry" />
        </mxCell>
        <mxCell id="G1Zh6NWUnZ5h9UOSZoVl-12" value="&lt;font style=&quot;font-size: 14px;&quot;&gt;Tắt quạt&lt;/font&gt;" style="rounded=0;whiteSpace=wrap;html=1;" parent="1" vertex="1">
          <mxGeometry x="679" y="220" width="40.5" height="40" as="geometry" />
        </mxCell>
        <mxCell id="G1Zh6NWUnZ5h9UOSZoVl-13" value="&lt;font style=&quot;font-size: 14px;&quot;&gt;Bật quạt&lt;/font&gt;" style="rounded=0;whiteSpace=wrap;html=1;" parent="1" vertex="1">
          <mxGeometry x="574" y="320" width="39.5" height="40" as="geometry" />
        </mxCell>
        <mxCell id="G1Zh6NWUnZ5h9UOSZoVl-14" value="&lt;font style=&quot;font-size: 14px;&quot;&gt;Yes&lt;/font&gt;" style="text;html=1;align=center;verticalAlign=middle;whiteSpace=wrap;rounded=0;" parent="1" vertex="1">
          <mxGeometry x="598.75" y="290" width="30" height="10" as="geometry" />
        </mxCell>
        <mxCell id="G1Zh6NWUnZ5h9UOSZoVl-17" value="&lt;font style=&quot;font-size: 14px;&quot;&gt;No&lt;/font&gt;" style="text;html=1;align=center;verticalAlign=middle;whiteSpace=wrap;rounded=0;" parent="1" vertex="1">
          <mxGeometry x="639" y="220" width="30" height="10" as="geometry" />
        </mxCell>
        <mxCell id="G1Zh6NWUnZ5h9UOSZoVl-20" value="" style="endArrow=classic;html=1;rounded=0;entryX=0.5;entryY=0;entryDx=0;entryDy=0;" parent="1" target="G1Zh6NWUnZ5h9UOSZoVl-2" edge="1">
          <mxGeometry width="50" height="50" relative="1" as="geometry">
            <mxPoint x="439" y="150" as="sourcePoint" />
            <mxPoint x="489" y="100" as="targetPoint" />
            <Array as="points">
              <mxPoint x="479" y="150" />
            </Array>
          </mxGeometry>
        </mxCell>
        <mxCell id="G1Zh6NWUnZ5h9UOSZoVl-21" value="" style="endArrow=classic;html=1;rounded=0;entryX=0.5;entryY=0;entryDx=0;entryDy=0;exitX=0;exitY=0.75;exitDx=0;exitDy=0;" parent="1" source="9pzH5vz35j8ZPKex2hUR-24" target="G1Zh6NWUnZ5h9UOSZoVl-1" edge="1">
          <mxGeometry width="50" height="50" relative="1" as="geometry">
            <mxPoint x="279.5" y="150" as="sourcePoint" />
            <mxPoint x="320.5" y="200" as="targetPoint" />
            <Array as="points">
              <mxPoint x="319.5" y="150" />
            </Array>
          </mxGeometry>
        </mxCell>
        <mxCell id="G1Zh6NWUnZ5h9UOSZoVl-22" value="" style="endArrow=classic;html=1;rounded=0;entryX=0;entryY=0.5;entryDx=0;entryDy=0;" parent="1" target="kC79qUa4ZbhkqaGTJPOC-6" edge="1">
          <mxGeometry width="50" height="50" relative="1" as="geometry">
            <mxPoint x="39" y="340" as="sourcePoint" />
            <mxPoint x="360" y="130" as="targetPoint" />
            <Array as="points">
              <mxPoint x="40" y="80" />
            </Array>
          </mxGeometry>
        </mxCell>
        <mxCell id="G1Zh6NWUnZ5h9UOSZoVl-31" value="" style="endArrow=classic;html=1;rounded=0;exitX=0;exitY=0.5;exitDx=0;exitDy=0;" parent="1" source="G1Zh6NWUnZ5h9UOSZoVl-11" edge="1">
          <mxGeometry width="50" height="50" relative="1" as="geometry">
            <mxPoint x="69" y="350" as="sourcePoint" />
            <mxPoint x="39" y="240" as="targetPoint" />
          </mxGeometry>
        </mxCell>
        <mxCell id="G1Zh6NWUnZ5h9UOSZoVl-32" value="" style="endArrow=classic;html=1;rounded=0;exitX=0;exitY=0.5;exitDx=0;exitDy=0;" parent="1" source="G1Zh6NWUnZ5h9UOSZoVl-10" edge="1">
          <mxGeometry width="50" height="50" relative="1" as="geometry">
            <mxPoint x="79" y="339.44" as="sourcePoint" />
            <mxPoint x="39" y="339.44" as="targetPoint" />
          </mxGeometry>
        </mxCell>
        <mxCell id="G1Zh6NWUnZ5h9UOSZoVl-33" value="" style="edgeStyle=orthogonalEdgeStyle;rounded=0;orthogonalLoop=1;jettySize=auto;html=1;" parent="1" edge="1">
          <mxGeometry relative="1" as="geometry">
            <mxPoint x="613.5" y="340" as="sourcePoint" />
            <mxPoint x="759" y="340" as="targetPoint" />
          </mxGeometry>
        </mxCell>
        <mxCell id="G1Zh6NWUnZ5h9UOSZoVl-34" value="" style="edgeStyle=orthogonalEdgeStyle;rounded=0;orthogonalLoop=1;jettySize=auto;html=1;" parent="1" edge="1">
          <mxGeometry relative="1" as="geometry">
            <mxPoint x="719.5" y="240" as="sourcePoint" />
            <mxPoint x="758.5" y="240" as="targetPoint" />
          </mxGeometry>
        </mxCell>
        <mxCell id="G1Zh6NWUnZ5h9UOSZoVl-35" value="" style="endArrow=classic;html=1;rounded=0;entryX=1;entryY=0.5;entryDx=0;entryDy=0;" parent="1" target="kC79qUa4ZbhkqaGTJPOC-6" edge="1">
          <mxGeometry width="50" height="50" relative="1" as="geometry">
            <mxPoint x="759" y="340" as="sourcePoint" />
            <mxPoint x="439" y="260" as="targetPoint" />
            <Array as="points">
              <mxPoint x="760" y="80" />
            </Array>
          </mxGeometry>
        </mxCell>
        <mxCell id="G1Zh6NWUnZ5h9UOSZoVl-44" value="&lt;font style=&quot;font-size: 14px;&quot;&gt;Tắt quạt&lt;/font&gt;" style="rounded=0;whiteSpace=wrap;html=1;" parent="1" vertex="1">
          <mxGeometry x="149" y="580" width="40.5" height="40" as="geometry" />
        </mxCell>
        <mxCell id="G1Zh6NWUnZ5h9UOSZoVl-45" value="&lt;font style=&quot;font-size: 14px;&quot;&gt;Bật đèn&lt;/font&gt;" style="rounded=0;whiteSpace=wrap;html=1;" parent="1" vertex="1">
          <mxGeometry x="539.75" y="680" width="39.5" height="40" as="geometry" />
        </mxCell>
        <mxCell id="G1Zh6NWUnZ5h9UOSZoVl-46" value="&lt;font style=&quot;font-size: 14px;&quot;&gt;Yes&lt;/font&gt;" style="text;html=1;align=center;verticalAlign=middle;whiteSpace=wrap;rounded=0;" parent="1" vertex="1">
          <mxGeometry x="268.25" y="655" width="30" height="10" as="geometry" />
        </mxCell>
        <mxCell id="G1Zh6NWUnZ5h9UOSZoVl-47" value="&lt;font style=&quot;font-size: 14px;&quot;&gt;No&lt;/font&gt;" style="text;html=1;align=center;verticalAlign=middle;whiteSpace=wrap;rounded=0;" parent="1" vertex="1">
          <mxGeometry x="188.25" y="580" width="30" height="10" as="geometry" />
        </mxCell>
        <mxCell id="G1Zh6NWUnZ5h9UOSZoVl-50" value="&lt;font style=&quot;font-size: 14px;&quot;&gt;Bật quạt&lt;/font&gt;" style="rounded=0;whiteSpace=wrap;html=1;" parent="1" vertex="1">
          <mxGeometry x="248.38" y="680" width="40" height="40" as="geometry" />
        </mxCell>
        <mxCell id="G1Zh6NWUnZ5h9UOSZoVl-51" value="&lt;font style=&quot;font-size: 14px;&quot;&gt;Tắt đèn&lt;/font&gt;" style="rounded=0;whiteSpace=wrap;html=1;" parent="1" vertex="1">
          <mxGeometry x="639.5" y="580" width="39.5" height="40" as="geometry" />
        </mxCell>
        <mxCell id="G1Zh6NWUnZ5h9UOSZoVl-56" value="&lt;font style=&quot;font-size: 14px;&quot;&gt;Yes&lt;/font&gt;" style="text;html=1;align=center;verticalAlign=middle;whiteSpace=wrap;rounded=0;rotation=0;" parent="1" vertex="1">
          <mxGeometry x="564.75" y="655" width="30" height="10" as="geometry" />
        </mxCell>
        <mxCell id="G1Zh6NWUnZ5h9UOSZoVl-57" value="&lt;font style=&quot;font-size: 14px;&quot;&gt;No&lt;/font&gt;" style="text;html=1;align=center;verticalAlign=middle;whiteSpace=wrap;rounded=0;" parent="1" vertex="1">
          <mxGeometry x="599.5" y="580" width="30" height="10" as="geometry" />
        </mxCell>
        <mxCell id="G1Zh6NWUnZ5h9UOSZoVl-58" value="" style="endArrow=classic;html=1;rounded=0;" parent="1" edge="1">
          <mxGeometry width="50" height="50" relative="1" as="geometry">
            <mxPoint x="399" y="500" as="sourcePoint" />
            <mxPoint x="398.95" y="540" as="targetPoint" />
          </mxGeometry>
        </mxCell>
        <mxCell id="G1Zh6NWUnZ5h9UOSZoVl-59" value="" style="endArrow=classic;html=1;rounded=0;" parent="1" edge="1">
          <mxGeometry width="50" height="50" relative="1" as="geometry">
            <mxPoint x="559.2" y="540" as="sourcePoint" />
            <mxPoint x="559.2" y="560" as="targetPoint" />
          </mxGeometry>
        </mxCell>
        <mxCell id="G1Zh6NWUnZ5h9UOSZoVl-60" value="" style="endArrow=classic;html=1;rounded=0;" parent="1" edge="1">
          <mxGeometry width="50" height="50" relative="1" as="geometry">
            <mxPoint x="398.7" y="540" as="sourcePoint" />
            <mxPoint x="398.7" y="560" as="targetPoint" />
          </mxGeometry>
        </mxCell>
        <mxCell id="G1Zh6NWUnZ5h9UOSZoVl-61" value="" style="endArrow=classic;html=1;rounded=0;" parent="1" edge="1">
          <mxGeometry width="50" height="50" relative="1" as="geometry">
            <mxPoint x="268.25" y="540" as="sourcePoint" />
            <mxPoint x="268.25" y="560" as="targetPoint" />
          </mxGeometry>
        </mxCell>
        <mxCell id="G1Zh6NWUnZ5h9UOSZoVl-63" value="" style="endArrow=none;html=1;rounded=0;" parent="1" edge="1">
          <mxGeometry width="50" height="50" relative="1" as="geometry">
            <mxPoint x="268.38" y="540" as="sourcePoint" />
            <mxPoint x="559" y="540" as="targetPoint" />
          </mxGeometry>
        </mxCell>
        <mxCell id="kC79qUa4ZbhkqaGTJPOC-11" value="" style="edgeStyle=orthogonalEdgeStyle;rounded=0;orthogonalLoop=1;jettySize=auto;html=1;" parent="1" source="G1Zh6NWUnZ5h9UOSZoVl-64" target="kC79qUa4ZbhkqaGTJPOC-10" edge="1">
          <mxGeometry relative="1" as="geometry" />
        </mxCell>
        <mxCell id="G1Zh6NWUnZ5h9UOSZoVl-64" value="&lt;font style=&quot;font-size: 14px;&quot;&gt;Hiện thị dữ liệu trên OLED&lt;/font&gt;" style="rounded=0;whiteSpace=wrap;html=1;" parent="1" vertex="1">
          <mxGeometry x="319.75" y="820" width="160" height="40" as="geometry" />
        </mxCell>
        <mxCell id="G1Zh6NWUnZ5h9UOSZoVl-65" value="" style="endArrow=classic;html=1;rounded=0;exitX=1;exitY=0.5;exitDx=0;exitDy=0;" parent="1" source="9pzH5vz35j8ZPKex2hUR-1" edge="1">
          <mxGeometry width="50" height="50" relative="1" as="geometry">
            <mxPoint x="-280" y="620" as="sourcePoint" />
            <mxPoint x="-320" y="340" as="targetPoint" />
            <Array as="points">
              <mxPoint x="-160" y="560" />
              <mxPoint x="-160" y="340" />
            </Array>
          </mxGeometry>
        </mxCell>
        <mxCell id="G1Zh6NWUnZ5h9UOSZoVl-67" value="" style="endArrow=classic;html=1;rounded=0;exitX=1;exitY=0.5;exitDx=0;exitDy=0;" parent="1" edge="1">
          <mxGeometry width="50" height="50" relative="1" as="geometry">
            <mxPoint x="379.13" y="680" as="sourcePoint" />
            <mxPoint x="379.88" y="720" as="targetPoint" />
          </mxGeometry>
        </mxCell>
        <mxCell id="G1Zh6NWUnZ5h9UOSZoVl-68" value="" style="endArrow=classic;html=1;rounded=0;exitX=1;exitY=0.5;exitDx=0;exitDy=0;entryX=0.75;entryY=0;entryDx=0;entryDy=0;" parent="1" target="G1Zh6NWUnZ5h9UOSZoVl-64" edge="1">
          <mxGeometry width="50" height="50" relative="1" as="geometry">
            <mxPoint x="439" y="680" as="sourcePoint" />
            <mxPoint x="439" y="800" as="targetPoint" />
          </mxGeometry>
        </mxCell>
        <mxCell id="G1Zh6NWUnZ5h9UOSZoVl-69" value="" style="endArrow=none;html=1;rounded=0;" parent="1" edge="1">
          <mxGeometry width="50" height="50" relative="1" as="geometry">
            <mxPoint x="379" y="680" as="sourcePoint" />
            <mxPoint x="439" y="680" as="targetPoint" />
          </mxGeometry>
        </mxCell>
        <mxCell id="G1Zh6NWUnZ5h9UOSZoVl-71" value="" style="endArrow=classic;html=1;rounded=0;" parent="1" edge="1">
          <mxGeometry width="50" height="50" relative="1" as="geometry">
            <mxPoint x="167.75" y="620" as="sourcePoint" />
            <mxPoint x="168" y="840" as="targetPoint" />
          </mxGeometry>
        </mxCell>
        <mxCell id="G1Zh6NWUnZ5h9UOSZoVl-72" value="" style="endArrow=classic;html=1;rounded=0;" parent="1" edge="1">
          <mxGeometry width="50" height="50" relative="1" as="geometry">
            <mxPoint x="268.38" y="720" as="sourcePoint" />
            <mxPoint x="269" y="840" as="targetPoint" />
          </mxGeometry>
        </mxCell>
        <mxCell id="G1Zh6NWUnZ5h9UOSZoVl-73" value="" style="endArrow=classic;html=1;rounded=0;" parent="1" edge="1">
          <mxGeometry width="50" height="50" relative="1" as="geometry">
            <mxPoint x="559.19" y="720" as="sourcePoint" />
            <mxPoint x="560" y="840" as="targetPoint" />
          </mxGeometry>
        </mxCell>
        <mxCell id="G1Zh6NWUnZ5h9UOSZoVl-74" value="" style="endArrow=classic;html=1;rounded=0;" parent="1" edge="1">
          <mxGeometry width="50" height="50" relative="1" as="geometry">
            <mxPoint x="658.95" y="620" as="sourcePoint" />
            <mxPoint x="659" y="840" as="targetPoint" />
          </mxGeometry>
        </mxCell>
        <mxCell id="G1Zh6NWUnZ5h9UOSZoVl-75" value="" style="endArrow=classic;html=1;rounded=0;entryX=0;entryY=0.5;entryDx=0;entryDy=0;" parent="1" target="G1Zh6NWUnZ5h9UOSZoVl-64" edge="1">
          <mxGeometry width="50" height="50" relative="1" as="geometry">
            <mxPoint x="168" y="840" as="sourcePoint" />
            <mxPoint x="218" y="790" as="targetPoint" />
          </mxGeometry>
        </mxCell>
        <mxCell id="G1Zh6NWUnZ5h9UOSZoVl-76" value="" style="endArrow=classic;html=1;rounded=0;entryX=1;entryY=0.5;entryDx=0;entryDy=0;" parent="1" target="G1Zh6NWUnZ5h9UOSZoVl-64" edge="1">
          <mxGeometry width="50" height="50" relative="1" as="geometry">
            <mxPoint x="658.75" y="840" as="sourcePoint" />
            <mxPoint x="708.75" y="790" as="targetPoint" />
          </mxGeometry>
        </mxCell>
        <mxCell id="kC79qUa4ZbhkqaGTJPOC-1" value="Cảm biến" style="rounded=0;whiteSpace=wrap;html=1;" parent="1" vertex="1">
          <mxGeometry x="-280" y="380" width="80" height="40" as="geometry" />
        </mxCell>
        <mxCell id="kC79qUa4ZbhkqaGTJPOC-2" value="" style="endArrow=classic;html=1;rounded=0;exitX=0.5;exitY=1;exitDx=0;exitDy=0;" parent="1" source="G1Zh6NWUnZ5h9UOSZoVl-5" edge="1">
          <mxGeometry width="50" height="50" relative="1" as="geometry">
            <mxPoint x="-280" y="370" as="sourcePoint" />
            <mxPoint x="-320" y="360" as="targetPoint" />
          </mxGeometry>
        </mxCell>
        <mxCell id="kC79qUa4ZbhkqaGTJPOC-3" value="" style="endArrow=classic;html=1;rounded=0;entryX=0.5;entryY=0;entryDx=0;entryDy=0;" parent="1" target="kC79qUa4ZbhkqaGTJPOC-1" edge="1">
          <mxGeometry width="50" height="50" relative="1" as="geometry">
            <mxPoint x="-320" y="360" as="sourcePoint" />
            <mxPoint x="-270" y="310" as="targetPoint" />
            <Array as="points">
              <mxPoint x="-240" y="360" />
            </Array>
          </mxGeometry>
        </mxCell>
        <mxCell id="kC79qUa4ZbhkqaGTJPOC-4" value="" style="endArrow=classic;html=1;rounded=0;entryX=0;entryY=0.5;entryDx=0;entryDy=0;" parent="1" target="oEF5TlpH8QMT3vxbU-CY-13" edge="1">
          <mxGeometry width="50" height="50" relative="1" as="geometry">
            <mxPoint x="-400" y="420" as="sourcePoint" />
            <mxPoint x="-350" y="370" as="targetPoint" />
            <Array as="points">
              <mxPoint x="-400" y="480" />
            </Array>
          </mxGeometry>
        </mxCell>
        <mxCell id="kC79qUa4ZbhkqaGTJPOC-5" value="" style="endArrow=classic;html=1;rounded=0;entryX=1;entryY=0.5;entryDx=0;entryDy=0;" parent="1" target="oEF5TlpH8QMT3vxbU-CY-13" edge="1">
          <mxGeometry width="50" height="50" relative="1" as="geometry">
            <mxPoint x="-240" y="420" as="sourcePoint" />
            <mxPoint x="-190" y="370" as="targetPoint" />
            <Array as="points">
              <mxPoint x="-240" y="480" />
            </Array>
          </mxGeometry>
        </mxCell>
        <mxCell id="kC79qUa4ZbhkqaGTJPOC-8" value="" style="edgeStyle=orthogonalEdgeStyle;rounded=0;orthogonalLoop=1;jettySize=auto;html=1;" parent="1" source="kC79qUa4ZbhkqaGTJPOC-6" target="9pzH5vz35j8ZPKex2hUR-24" edge="1">
          <mxGeometry relative="1" as="geometry" />
        </mxCell>
        <mxCell id="kC79qUa4ZbhkqaGTJPOC-6" value="&lt;font style=&quot;font-size: 14px;&quot;&gt;Hiển thị dữ liệu trên OLED&lt;/font&gt;" style="rounded=0;whiteSpace=wrap;html=1;" parent="1" vertex="1">
          <mxGeometry x="320" y="60" width="160" height="40" as="geometry" />
        </mxCell>
        <mxCell id="kC79qUa4ZbhkqaGTJPOC-9" value="" style="endArrow=classic;html=1;rounded=0;entryX=0.944;entryY=-0.006;entryDx=0;entryDy=0;entryPerimeter=0;" parent="1" target="G1Zh6NWUnZ5h9UOSZoVl-64" edge="1">
          <mxGeometry width="50" height="50" relative="1" as="geometry">
            <mxPoint x="440" y="600" as="sourcePoint" />
            <mxPoint x="490" y="550" as="targetPoint" />
            <Array as="points">
              <mxPoint x="470" y="600" />
            </Array>
          </mxGeometry>
        </mxCell>
        <mxCell id="kC79qUa4ZbhkqaGTJPOC-10" value="&lt;font style=&quot;font-size: 14px;&quot;&gt;Server&lt;/font&gt;" style="rounded=0;whiteSpace=wrap;html=1;" parent="1" vertex="1">
          <mxGeometry x="360" y="880" width="79.5" height="40" as="geometry" />
        </mxCell>
        <mxCell id="uxmxSCUbVXvSqosHKgBa-2" value="&lt;font style=&quot;font-size: 14px;&quot;&gt;Khối cảm biến&lt;/font&gt;" style="text;html=1;align=center;verticalAlign=middle;whiteSpace=wrap;rounded=0;" parent="1" vertex="1">
          <mxGeometry x="539.75" y="460" width="100.75" height="30" as="geometry" />
        </mxCell>
        <mxCell id="uxmxSCUbVXvSqosHKgBa-4" value="&lt;font style=&quot;font-size: 14px;&quot;&gt;Khối nút nhấn&lt;/font&gt;" style="text;html=1;align=center;verticalAlign=middle;whiteSpace=wrap;rounded=0;" parent="1" vertex="1">
          <mxGeometry x="360" y="320" width="80" height="30" as="geometry" />
        </mxCell>
        <mxCell id="-R-gdumoZK56TCtXXkGM-3" value="" style="endArrow=classic;html=1;rounded=0;entryX=0.5;entryY=0;entryDx=0;entryDy=0;exitX=0.5;exitY=1;exitDx=0;exitDy=0;" edge="1" parent="1" source="oEF5TlpH8QMT3vxbU-CY-4" target="G1Zh6NWUnZ5h9UOSZoVl-5">
          <mxGeometry width="50" height="50" relative="1" as="geometry">
            <mxPoint x="-320" y="240" as="sourcePoint" />
            <mxPoint x="-270" y="190" as="targetPoint" />
          </mxGeometry>
        </mxCell>
      </root>
    </mxGraphModel>
  </diagram>
  <diagram id="25U768-oTFYMBNFVgeKV" name="Trang-3">
    <mxGraphModel dx="3262" dy="1148" grid="1" gridSize="10" guides="1" tooltips="1" connect="1" arrows="1" fold="1" page="1" pageScale="1" pageWidth="827" pageHeight="1169" math="0" shadow="0">
      <root>
        <mxCell id="0" />
        <mxCell id="1" parent="0" />
        <mxCell id="zxp86utd3J-CDjJP3rCu-29" value="" style="rounded=1;whiteSpace=wrap;html=1;" vertex="1" parent="1">
          <mxGeometry x="-803" y="430" width="780" height="280" as="geometry" />
        </mxCell>
        <mxCell id="R21k8qDed_Bh9R9KqAzT-1" value="" style="edgeStyle=orthogonalEdgeStyle;rounded=0;orthogonalLoop=1;jettySize=auto;html=1;" parent="1" source="R21k8qDed_Bh9R9KqAzT-2" target="R21k8qDed_Bh9R9KqAzT-5" edge="1">
          <mxGeometry relative="1" as="geometry" />
        </mxCell>
        <mxCell id="R21k8qDed_Bh9R9KqAzT-2" value="Hiển thị dữ liệu theo thời gian thực lên node-red" style="rounded=0;whiteSpace=wrap;html=1;" parent="1" vertex="1">
          <mxGeometry x="279.5" y="120" width="120" height="40" as="geometry" />
        </mxCell>
        <mxCell id="R21k8qDed_Bh9R9KqAzT-3" value="" style="edgeStyle=orthogonalEdgeStyle;rounded=0;orthogonalLoop=1;jettySize=auto;html=1;" parent="1" source="R21k8qDed_Bh9R9KqAzT-4" target="R21k8qDed_Bh9R9KqAzT-41" edge="1">
          <mxGeometry relative="1" as="geometry" />
        </mxCell>
        <mxCell id="R21k8qDed_Bh9R9KqAzT-4" value="Đưa dữ liệu đọc được và dữ liệu thay đổi trên giao diện Node-red vào Database" style="rounded=0;whiteSpace=wrap;html=1;" parent="1" vertex="1">
          <mxGeometry x="241" y="840" width="119" height="80" as="geometry" />
        </mxCell>
        <mxCell id="ghxfl_Wpb8U8em5-Rm16-1" value="" style="edgeStyle=orthogonalEdgeStyle;rounded=0;orthogonalLoop=1;jettySize=auto;html=1;entryX=0.5;entryY=0;entryDx=0;entryDy=0;" parent="1" target="zxp86utd3J-CDjJP3rCu-1" edge="1">
          <mxGeometry relative="1" as="geometry">
            <mxPoint x="-192.5" y="449.9999999999999" as="sourcePoint" />
            <mxPoint x="-131" y="449.9999999999999" as="targetPoint" />
          </mxGeometry>
        </mxCell>
        <mxCell id="zxp86utd3J-CDjJP3rCu-17" value="" style="edgeStyle=orthogonalEdgeStyle;rounded=0;orthogonalLoop=1;jettySize=auto;html=1;" edge="1" parent="1" source="R21k8qDed_Bh9R9KqAzT-5" target="lklpHbwUnKRBHh0k4XOb-11">
          <mxGeometry relative="1" as="geometry" />
        </mxCell>
        <mxCell id="R21k8qDed_Bh9R9KqAzT-5" value="Điều khiển trên Node-red" style="rounded=0;whiteSpace=wrap;html=1;" parent="1" vertex="1">
          <mxGeometry x="279.5" y="200" width="120" height="40" as="geometry" />
        </mxCell>
        <mxCell id="R21k8qDed_Bh9R9KqAzT-37" value="Bắt đầu" style="rounded=1;whiteSpace=wrap;html=1;" parent="1" vertex="1">
          <mxGeometry x="159.5" y="40" width="40" height="40" as="geometry" />
        </mxCell>
        <mxCell id="R21k8qDed_Bh9R9KqAzT-38" value="" style="edgeStyle=orthogonalEdgeStyle;rounded=0;orthogonalLoop=1;jettySize=auto;html=1;" parent="1" source="R21k8qDed_Bh9R9KqAzT-39" target="R21k8qDed_Bh9R9KqAzT-2" edge="1">
          <mxGeometry relative="1" as="geometry" />
        </mxCell>
        <mxCell id="R21k8qDed_Bh9R9KqAzT-39" value="Lấy dữ liệu từ openweathermap.org" style="rounded=0;whiteSpace=wrap;html=1;" parent="1" vertex="1">
          <mxGeometry x="119.5" y="120" width="119.5" height="40" as="geometry" />
        </mxCell>
        <mxCell id="R21k8qDed_Bh9R9KqAzT-40" value="Delay 60s" style="rounded=0;whiteSpace=wrap;html=1;" parent="1" vertex="1">
          <mxGeometry x="39.5" y="80" width="40" height="40" as="geometry" />
        </mxCell>
        <mxCell id="R21k8qDed_Bh9R9KqAzT-41" value="Truy xuất dữ liệu của từng thiết bị theo ngày hoặc theo ngày và phòng" style="rhombus;whiteSpace=wrap;html=1;" parent="1" vertex="1">
          <mxGeometry x="240" y="960" width="120" height="120" as="geometry" />
        </mxCell>
        <mxCell id="R21k8qDed_Bh9R9KqAzT-42" value="Yes" style="text;html=1;align=center;verticalAlign=middle;whiteSpace=wrap;rounded=0;" parent="1" vertex="1">
          <mxGeometry x="359" y="1000" width="30" height="10" as="geometry" />
        </mxCell>
        <mxCell id="R21k8qDed_Bh9R9KqAzT-43" value="No" style="text;html=1;align=center;verticalAlign=middle;whiteSpace=wrap;rounded=0;" parent="1" vertex="1">
          <mxGeometry x="299" y="1090" width="30" height="10" as="geometry" />
        </mxCell>
        <mxCell id="R21k8qDed_Bh9R9KqAzT-44" value="Xuất dữ liệu thành bảng chi tiết" style="rounded=0;whiteSpace=wrap;html=1;" parent="1" vertex="1">
          <mxGeometry x="437" y="960" width="123" height="40" as="geometry" />
        </mxCell>
        <mxCell id="R21k8qDed_Bh9R9KqAzT-45" value="Xuất dữ liệu thành biểu đồ cột cho từng thiết bị" style="rounded=0;whiteSpace=wrap;html=1;" parent="1" vertex="1">
          <mxGeometry x="437" y="1040" width="123" height="40" as="geometry" />
        </mxCell>
        <mxCell id="R21k8qDed_Bh9R9KqAzT-46" value="" style="endArrow=classic;html=1;rounded=0;exitX=1;exitY=0.5;exitDx=0;exitDy=0;" parent="1" source="R21k8qDed_Bh9R9KqAzT-41" edge="1">
          <mxGeometry width="50" height="50" relative="1" as="geometry">
            <mxPoint x="349" y="1030" as="sourcePoint" />
            <mxPoint x="400" y="1020" as="targetPoint" />
          </mxGeometry>
        </mxCell>
        <mxCell id="R21k8qDed_Bh9R9KqAzT-47" value="" style="endArrow=classic;html=1;rounded=0;" parent="1" edge="1">
          <mxGeometry width="50" height="50" relative="1" as="geometry">
            <mxPoint x="400" y="1020" as="sourcePoint" />
            <mxPoint x="437" y="980" as="targetPoint" />
            <Array as="points">
              <mxPoint x="400" y="980" />
            </Array>
          </mxGeometry>
        </mxCell>
        <mxCell id="R21k8qDed_Bh9R9KqAzT-48" value="" style="endArrow=classic;html=1;rounded=0;" parent="1" edge="1">
          <mxGeometry width="50" height="50" relative="1" as="geometry">
            <mxPoint x="400" y="1020" as="sourcePoint" />
            <mxPoint x="437" y="1060" as="targetPoint" />
            <Array as="points">
              <mxPoint x="400" y="1060" />
            </Array>
          </mxGeometry>
        </mxCell>
        <mxCell id="R21k8qDed_Bh9R9KqAzT-49" value="" style="endArrow=classic;html=1;rounded=0;" parent="1" edge="1">
          <mxGeometry width="50" height="50" relative="1" as="geometry">
            <mxPoint x="560" y="979.83" as="sourcePoint" />
            <mxPoint x="600" y="980" as="targetPoint" />
          </mxGeometry>
        </mxCell>
        <mxCell id="R21k8qDed_Bh9R9KqAzT-50" value="" style="endArrow=classic;html=1;rounded=0;" parent="1" edge="1">
          <mxGeometry width="50" height="50" relative="1" as="geometry">
            <mxPoint x="560" y="1059.83" as="sourcePoint" />
            <mxPoint x="600" y="1060" as="targetPoint" />
          </mxGeometry>
        </mxCell>
        <mxCell id="R21k8qDed_Bh9R9KqAzT-70" value="" style="endArrow=classic;html=1;rounded=0;exitX=1;exitY=0.5;exitDx=0;exitDy=0;" parent="1" source="R21k8qDed_Bh9R9KqAzT-40" edge="1">
          <mxGeometry width="50" height="50" relative="1" as="geometry">
            <mxPoint x="189.5" y="110" as="sourcePoint" />
            <mxPoint x="179.5" y="100" as="targetPoint" />
          </mxGeometry>
        </mxCell>
        <mxCell id="R21k8qDed_Bh9R9KqAzT-71" value="" style="endArrow=classic;html=1;rounded=0;entryX=0.5;entryY=1;entryDx=0;entryDy=0;exitX=0;exitY=0.5;exitDx=0;exitDy=0;" parent="1" source="R21k8qDed_Bh9R9KqAzT-39" target="R21k8qDed_Bh9R9KqAzT-40" edge="1">
          <mxGeometry width="50" height="50" relative="1" as="geometry">
            <mxPoint x="79.5" y="140" as="sourcePoint" />
            <mxPoint x="59.5" y="110" as="targetPoint" />
            <Array as="points">
              <mxPoint x="59.5" y="140" />
            </Array>
          </mxGeometry>
        </mxCell>
        <mxCell id="R21k8qDed_Bh9R9KqAzT-72" value="" style="endArrow=classic;html=1;rounded=0;entryX=0.5;entryY=0;entryDx=0;entryDy=0;exitX=0.5;exitY=1;exitDx=0;exitDy=0;" parent="1" source="R21k8qDed_Bh9R9KqAzT-37" target="R21k8qDed_Bh9R9KqAzT-39" edge="1">
          <mxGeometry width="50" height="50" relative="1" as="geometry">
            <mxPoint x="199.5" y="90" as="sourcePoint" />
            <mxPoint x="221.5" y="110" as="targetPoint" />
          </mxGeometry>
        </mxCell>
        <mxCell id="WJVBigV728MeyZonOQ-s-2" value="" style="edgeStyle=orthogonalEdgeStyle;rounded=0;orthogonalLoop=1;jettySize=auto;html=1;" parent="1" source="WJVBigV728MeyZonOQ-s-1" target="R21k8qDed_Bh9R9KqAzT-2" edge="1">
          <mxGeometry relative="1" as="geometry" />
        </mxCell>
        <mxCell id="WJVBigV728MeyZonOQ-s-1" value="Nhận dữ liệu được gửi từ ESP" style="rounded=0;whiteSpace=wrap;html=1;" parent="1" vertex="1">
          <mxGeometry x="299.5" y="40" width="80" height="40" as="geometry" />
        </mxCell>
        <mxCell id="lklpHbwUnKRBHh0k4XOb-2" value="&lt;font style=&quot;font-size: 14px;&quot;&gt;Chế độ thủ công&lt;/font&gt;" style="rounded=0;whiteSpace=wrap;html=1;" parent="1" vertex="1">
          <mxGeometry x="-152" y="550" width="79.5" height="50" as="geometry" />
        </mxCell>
        <mxCell id="lklpHbwUnKRBHh0k4XOb-3" value="&lt;font style=&quot;font-size: 14px;&quot;&gt;Chế độ tự động&lt;/font&gt;" style="rounded=0;whiteSpace=wrap;html=1;" parent="1" vertex="1">
          <mxGeometry x="-312" y="550" width="80" height="50" as="geometry" />
        </mxCell>
        <mxCell id="lklpHbwUnKRBHh0k4XOb-11" value="Gửi dữ liệu điều khiển đến ESP" style="rounded=0;whiteSpace=wrap;html=1;" parent="1" vertex="1">
          <mxGeometry x="279.5" y="280" width="119.5" height="40" as="geometry" />
        </mxCell>
        <mxCell id="lbdZUCSP7ylMnK7Xn82O-1" value="Khí gas vượt ngưỡng" style="rhombus;whiteSpace=wrap;html=1;" parent="1" vertex="1">
          <mxGeometry x="440" y="110" width="80" height="80" as="geometry" />
        </mxCell>
        <mxCell id="lbdZUCSP7ylMnK7Xn82O-2" value="Yes" style="text;html=1;align=center;verticalAlign=middle;whiteSpace=wrap;rounded=0;" parent="1" vertex="1">
          <mxGeometry x="520" y="130" width="30" height="10" as="geometry" />
        </mxCell>
        <mxCell id="lbdZUCSP7ylMnK7Xn82O-5" value="" style="endArrow=classic;html=1;rounded=0;" parent="1" edge="1">
          <mxGeometry width="50" height="50" relative="1" as="geometry">
            <mxPoint x="520" y="150" as="sourcePoint" />
            <mxPoint x="560" y="150" as="targetPoint" />
          </mxGeometry>
        </mxCell>
        <mxCell id="Fl3sk10GBeG2Mq_w4BB1-1" value="Thông báo lên màn hình giao diện&amp;nbsp;" style="rounded=0;whiteSpace=wrap;html=1;" parent="1" vertex="1">
          <mxGeometry x="559.5" y="130" width="80.5" height="40" as="geometry" />
        </mxCell>
        <mxCell id="Fl3sk10GBeG2Mq_w4BB1-2" value="" style="endArrow=classic;html=1;rounded=0;entryX=0;entryY=0.5;entryDx=0;entryDy=0;exitX=1;exitY=0.75;exitDx=0;exitDy=0;" parent="1" target="lbdZUCSP7ylMnK7Xn82O-1" edge="1" source="R21k8qDed_Bh9R9KqAzT-2">
          <mxGeometry width="50" height="50" relative="1" as="geometry">
            <mxPoint x="399.5" y="140" as="sourcePoint" />
            <mxPoint x="449.5" y="90" as="targetPoint" />
          </mxGeometry>
        </mxCell>
        <mxCell id="Fl3sk10GBeG2Mq_w4BB1-3" value="" style="endArrow=classic;html=1;rounded=0;exitX=1;exitY=0.5;exitDx=0;exitDy=0;" parent="1" source="Fl3sk10GBeG2Mq_w4BB1-1" edge="1">
          <mxGeometry width="50" height="50" relative="1" as="geometry">
            <mxPoint x="659.5" y="90" as="sourcePoint" />
            <mxPoint x="340" y="90" as="targetPoint" />
            <Array as="points">
              <mxPoint x="680" y="150" />
              <mxPoint x="680" y="90" />
            </Array>
          </mxGeometry>
        </mxCell>
        <mxCell id="Fl3sk10GBeG2Mq_w4BB1-4" value="" style="endArrow=classic;html=1;rounded=0;" parent="1" source="lbdZUCSP7ylMnK7Xn82O-1" edge="1">
          <mxGeometry width="50" height="50" relative="1" as="geometry">
            <mxPoint x="430.5" y="110" as="sourcePoint" />
            <mxPoint x="479.5" y="90" as="targetPoint" />
          </mxGeometry>
        </mxCell>
        <mxCell id="Fl3sk10GBeG2Mq_w4BB1-5" value="No" style="text;html=1;align=center;verticalAlign=middle;whiteSpace=wrap;rounded=0;" parent="1" vertex="1">
          <mxGeometry x="479.5" y="95" width="30" height="10" as="geometry" />
        </mxCell>
        <mxCell id="_wwROKgiQK8flULIST_e-4" value="" style="edgeStyle=orthogonalEdgeStyle;rounded=0;orthogonalLoop=1;jettySize=auto;html=1;" parent="1" target="R21k8qDed_Bh9R9KqAzT-4" edge="1">
          <mxGeometry relative="1" as="geometry">
            <mxPoint x="300.5" y="800" as="sourcePoint" />
          </mxGeometry>
        </mxCell>
        <mxCell id="_wwROKgiQK8flULIST_e-3" value="Nhận dữ liệu được gửi từ ESP" style="rounded=0;whiteSpace=wrap;html=1;" parent="1" vertex="1">
          <mxGeometry x="260" y="760" width="80" height="40" as="geometry" />
        </mxCell>
        <mxCell id="_wwROKgiQK8flULIST_e-5" value="" style="endArrow=classic;html=1;rounded=0;exitX=0.5;exitY=1;exitDx=0;exitDy=0;entryX=1;entryY=0.5;entryDx=0;entryDy=0;" parent="1" source="R21k8qDed_Bh9R9KqAzT-41" target="R21k8qDed_Bh9R9KqAzT-4" edge="1">
          <mxGeometry width="50" height="50" relative="1" as="geometry">
            <mxPoint x="340" y="920" as="sourcePoint" />
            <mxPoint x="360" y="780" as="targetPoint" />
            <Array as="points">
              <mxPoint x="300" y="1120" />
              <mxPoint x="600" y="1120" />
              <mxPoint x="600" y="880" />
            </Array>
          </mxGeometry>
        </mxCell>
        <mxCell id="qq2a5b1Q64j_PftaXGkp-2" value="" style="edgeStyle=orthogonalEdgeStyle;rounded=0;orthogonalLoop=1;jettySize=auto;html=1;" edge="1" parent="1" source="qq2a5b1Q64j_PftaXGkp-3" target="qq2a5b1Q64j_PftaXGkp-12">
          <mxGeometry relative="1" as="geometry" />
        </mxCell>
        <mxCell id="qq2a5b1Q64j_PftaXGkp-3" value="&lt;font style=&quot;font-size: 14px;&quot;&gt;Bật cảm biến PIR&lt;/font&gt;" style="rounded=0;whiteSpace=wrap;html=1;" vertex="1" parent="1">
          <mxGeometry x="-552.75" y="470" width="80" height="40" as="geometry" />
        </mxCell>
        <mxCell id="qq2a5b1Q64j_PftaXGkp-4" value="" style="edgeStyle=orthogonalEdgeStyle;rounded=0;orthogonalLoop=1;jettySize=auto;html=1;" edge="1" parent="1" source="qq2a5b1Q64j_PftaXGkp-5" target="qq2a5b1Q64j_PftaXGkp-13">
          <mxGeometry relative="1" as="geometry" />
        </mxCell>
        <mxCell id="qq2a5b1Q64j_PftaXGkp-5" value="&lt;font style=&quot;font-size: 14px;&quot;&gt;Tắt cảm biến PIR&lt;/font&gt;" style="rounded=0;whiteSpace=wrap;html=1;" vertex="1" parent="1">
          <mxGeometry x="-432.75" y="470" width="79.75" height="40" as="geometry" />
        </mxCell>
        <mxCell id="qq2a5b1Q64j_PftaXGkp-6" value="" style="edgeStyle=orthogonalEdgeStyle;rounded=0;orthogonalLoop=1;jettySize=auto;html=1;" edge="1" parent="1" source="qq2a5b1Q64j_PftaXGkp-7" target="qq2a5b1Q64j_PftaXGkp-10">
          <mxGeometry relative="1" as="geometry" />
        </mxCell>
        <mxCell id="qq2a5b1Q64j_PftaXGkp-7" value="&lt;font style=&quot;font-size: 14px;&quot;&gt;Bật Buzzer&lt;/font&gt;" style="rounded=0;whiteSpace=wrap;html=1;" vertex="1" parent="1">
          <mxGeometry x="-793" y="470" width="80" height="40" as="geometry" />
        </mxCell>
        <mxCell id="qq2a5b1Q64j_PftaXGkp-8" value="" style="edgeStyle=orthogonalEdgeStyle;rounded=0;orthogonalLoop=1;jettySize=auto;html=1;" edge="1" parent="1" source="qq2a5b1Q64j_PftaXGkp-9" target="qq2a5b1Q64j_PftaXGkp-11">
          <mxGeometry relative="1" as="geometry" />
        </mxCell>
        <mxCell id="qq2a5b1Q64j_PftaXGkp-9" value="&lt;font style=&quot;font-size: 14px;&quot;&gt;Tắt Buzzer&lt;/font&gt;" style="rounded=0;whiteSpace=wrap;html=1;" vertex="1" parent="1">
          <mxGeometry x="-673" y="470" width="80" height="40" as="geometry" />
        </mxCell>
        <mxCell id="qq2a5b1Q64j_PftaXGkp-10" value="&lt;font style=&quot;font-size: 14px;&quot;&gt;Buzzer&amp;nbsp;hoạt động&lt;/font&gt;" style="rounded=0;whiteSpace=wrap;html=1;" vertex="1" parent="1">
          <mxGeometry x="-793" y="550" width="80" height="50" as="geometry" />
        </mxCell>
        <mxCell id="qq2a5b1Q64j_PftaXGkp-11" value="&lt;font style=&quot;font-size: 14px;&quot;&gt;Buzzer&amp;nbsp;dừng hoạt động&lt;/font&gt;" style="rounded=0;whiteSpace=wrap;html=1;" vertex="1" parent="1">
          <mxGeometry x="-673" y="550" width="80" height="50" as="geometry" />
        </mxCell>
        <mxCell id="qq2a5b1Q64j_PftaXGkp-12" value="&lt;font style=&quot;font-size: 14px;&quot;&gt;Cảm biến PIR hoạt động&lt;/font&gt;" style="rounded=0;whiteSpace=wrap;html=1;" vertex="1" parent="1">
          <mxGeometry x="-554" y="550" width="81.25" height="50" as="geometry" />
        </mxCell>
        <mxCell id="qq2a5b1Q64j_PftaXGkp-13" value="&lt;font style=&quot;font-size: 14px;&quot;&gt;Cảm biến PIR dừng hoạt động&lt;/font&gt;" style="rounded=0;whiteSpace=wrap;html=1;" vertex="1" parent="1">
          <mxGeometry x="-432.75" y="550" width="80" height="50" as="geometry" />
        </mxCell>
        <mxCell id="qq2a5b1Q64j_PftaXGkp-15" value="" style="endArrow=classic;html=1;rounded=0;" edge="1" parent="1">
          <mxGeometry width="50" height="50" relative="1" as="geometry">
            <mxPoint x="-393.06999999999994" y="450" as="sourcePoint" />
            <mxPoint x="-393.06999999999994" y="470" as="targetPoint" />
          </mxGeometry>
        </mxCell>
        <mxCell id="qq2a5b1Q64j_PftaXGkp-16" value="" style="endArrow=classic;html=1;rounded=0;" edge="1" parent="1">
          <mxGeometry width="50" height="50" relative="1" as="geometry">
            <mxPoint x="-512.45" y="450" as="sourcePoint" />
            <mxPoint x="-512.45" y="470" as="targetPoint" />
          </mxGeometry>
        </mxCell>
        <mxCell id="qq2a5b1Q64j_PftaXGkp-17" value="" style="endArrow=classic;html=1;rounded=0;" edge="1" parent="1">
          <mxGeometry width="50" height="50" relative="1" as="geometry">
            <mxPoint x="-632.7" y="450" as="sourcePoint" />
            <mxPoint x="-632.7" y="470" as="targetPoint" />
          </mxGeometry>
        </mxCell>
        <mxCell id="qq2a5b1Q64j_PftaXGkp-18" value="" style="endArrow=classic;html=1;rounded=0;" edge="1" parent="1">
          <mxGeometry width="50" height="50" relative="1" as="geometry">
            <mxPoint x="-753.2" y="450" as="sourcePoint" />
            <mxPoint x="-753.2" y="470" as="targetPoint" />
          </mxGeometry>
        </mxCell>
        <mxCell id="qq2a5b1Q64j_PftaXGkp-19" value="" style="endArrow=none;html=1;rounded=0;" edge="1" parent="1">
          <mxGeometry width="50" height="50" relative="1" as="geometry">
            <mxPoint x="-753" y="450" as="sourcePoint" />
            <mxPoint x="-192.5" y="450" as="targetPoint" />
          </mxGeometry>
        </mxCell>
        <mxCell id="zxp86utd3J-CDjJP3rCu-1" value="&lt;font style=&quot;font-size: 14px;&quot;&gt;Chọn chế độ&lt;/font&gt;" style="rounded=0;whiteSpace=wrap;html=1;" vertex="1" parent="1">
          <mxGeometry x="-233" y="470" width="81" height="40" as="geometry" />
        </mxCell>
        <mxCell id="zxp86utd3J-CDjJP3rCu-6" value="" style="endArrow=classic;html=1;rounded=0;entryX=0.5;entryY=0;entryDx=0;entryDy=0;exitX=0;exitY=0.5;exitDx=0;exitDy=0;" edge="1" parent="1" source="zxp86utd3J-CDjJP3rCu-1" target="lklpHbwUnKRBHh0k4XOb-3">
          <mxGeometry width="50" height="50" relative="1" as="geometry">
            <mxPoint x="-273" y="490" as="sourcePoint" />
            <mxPoint x="-273" y="510" as="targetPoint" />
            <Array as="points">
              <mxPoint x="-272.5" y="490" />
            </Array>
          </mxGeometry>
        </mxCell>
        <mxCell id="zxp86utd3J-CDjJP3rCu-7" value="" style="endArrow=classic;html=1;rounded=0;entryX=0.5;entryY=0;entryDx=0;entryDy=0;exitX=0.5;exitY=1;exitDx=0;exitDy=0;" edge="1" parent="1" source="lklpHbwUnKRBHh0k4XOb-2" target="zxp86utd3J-CDjJP3rCu-14">
          <mxGeometry width="50" height="50" relative="1" as="geometry">
            <mxPoint x="-93" y="610" as="sourcePoint" />
            <mxPoint x="-112.35000000000002" y="610" as="targetPoint" />
          </mxGeometry>
        </mxCell>
        <mxCell id="zxp86utd3J-CDjJP3rCu-8" value="" style="endArrow=classic;html=1;rounded=0;entryX=0.5;entryY=0;entryDx=0;entryDy=0;exitX=0.5;exitY=1;exitDx=0;exitDy=0;" edge="1" parent="1" source="lklpHbwUnKRBHh0k4XOb-3" target="zxp86utd3J-CDjJP3rCu-16">
          <mxGeometry width="50" height="50" relative="1" as="geometry">
            <mxPoint x="-272.1" y="590" as="sourcePoint" />
            <mxPoint x="-272.1" y="610" as="targetPoint" />
          </mxGeometry>
        </mxCell>
        <mxCell id="zxp86utd3J-CDjJP3rCu-9" value="" style="endArrow=classic;html=1;rounded=0;" edge="1" parent="1">
          <mxGeometry width="50" height="50" relative="1" as="geometry">
            <mxPoint x="-393" y="590" as="sourcePoint" />
            <mxPoint x="-393" y="690" as="targetPoint" />
          </mxGeometry>
        </mxCell>
        <mxCell id="zxp86utd3J-CDjJP3rCu-10" value="" style="endArrow=classic;html=1;rounded=0;exitX=0.5;exitY=1;exitDx=0;exitDy=0;" edge="1" parent="1" source="qq2a5b1Q64j_PftaXGkp-12">
          <mxGeometry width="50" height="50" relative="1" as="geometry">
            <mxPoint x="-513" y="590" as="sourcePoint" />
            <mxPoint x="-513" y="690" as="targetPoint" />
          </mxGeometry>
        </mxCell>
        <mxCell id="zxp86utd3J-CDjJP3rCu-11" value="" style="endArrow=classic;html=1;rounded=0;exitX=0.5;exitY=1;exitDx=0;exitDy=0;" edge="1" parent="1" source="qq2a5b1Q64j_PftaXGkp-11">
          <mxGeometry width="50" height="50" relative="1" as="geometry">
            <mxPoint x="-633" y="590" as="sourcePoint" />
            <mxPoint x="-633" y="690" as="targetPoint" />
          </mxGeometry>
        </mxCell>
        <mxCell id="zxp86utd3J-CDjJP3rCu-12" value="" style="endArrow=classic;html=1;rounded=0;exitX=0.5;exitY=1;exitDx=0;exitDy=0;" edge="1" parent="1" source="qq2a5b1Q64j_PftaXGkp-10">
          <mxGeometry width="50" height="50" relative="1" as="geometry">
            <mxPoint x="-763" y="620" as="sourcePoint" />
            <mxPoint x="-753" y="690" as="targetPoint" />
          </mxGeometry>
        </mxCell>
        <mxCell id="zxp86utd3J-CDjJP3rCu-13" value="" style="endArrow=classic;html=1;rounded=0;exitX=1;exitY=0.5;exitDx=0;exitDy=0;" edge="1" parent="1" source="zxp86utd3J-CDjJP3rCu-1">
          <mxGeometry width="50" height="50" relative="1" as="geometry">
            <mxPoint x="-112" y="530" as="sourcePoint" />
            <mxPoint x="-112" y="550" as="targetPoint" />
            <Array as="points">
              <mxPoint x="-111.5" y="490" />
            </Array>
          </mxGeometry>
        </mxCell>
        <mxCell id="zxp86utd3J-CDjJP3rCu-14" value="&lt;font style=&quot;font-size: 14px;&quot;&gt;Bật/ tắt đèn và quạt bằng nút nhấn&lt;/font&gt;" style="rounded=0;whiteSpace=wrap;html=1;" vertex="1" parent="1">
          <mxGeometry x="-193" y="630" width="160" height="40" as="geometry" />
        </mxCell>
        <mxCell id="zxp86utd3J-CDjJP3rCu-15" value="" style="endArrow=classic;html=1;rounded=0;" edge="1" parent="1">
          <mxGeometry width="50" height="50" relative="1" as="geometry">
            <mxPoint x="-112" y="670" as="sourcePoint" />
            <mxPoint x="-112" y="690" as="targetPoint" />
          </mxGeometry>
        </mxCell>
        <mxCell id="zxp86utd3J-CDjJP3rCu-16" value="&lt;font style=&quot;font-size: 14px;&quot;&gt;Tự động bật/ tắt quạt&lt;/font&gt;" style="rounded=0;whiteSpace=wrap;html=1;" vertex="1" parent="1">
          <mxGeometry x="-312" y="630" width="80" height="40" as="geometry" />
        </mxCell>
        <mxCell id="zxp86utd3J-CDjJP3rCu-19" value="&lt;font style=&quot;font-size: 14px;&quot;&gt;Hiển thị dữ liệu theo thời gian thực lên node-red&lt;/font&gt;" style="rounded=0;whiteSpace=wrap;html=1;" vertex="1" parent="1">
          <mxGeometry x="-473.5" y="360" width="120.5" height="50" as="geometry" />
        </mxCell>
        <mxCell id="zxp86utd3J-CDjJP3rCu-20" value="&lt;font style=&quot;font-size: 14px;&quot;&gt;Gửi dữ liệu điều khiển đến ESP&lt;/font&gt;" style="rounded=0;whiteSpace=wrap;html=1;" vertex="1" parent="1">
          <mxGeometry x="-473.5" y="730" width="119.5" height="40" as="geometry" />
        </mxCell>
        <mxCell id="zxp86utd3J-CDjJP3rCu-21" value="" style="endArrow=classic;html=1;rounded=0;exitX=1;exitY=0.5;exitDx=0;exitDy=0;" edge="1" parent="1" source="lklpHbwUnKRBHh0k4XOb-11">
          <mxGeometry width="50" height="50" relative="1" as="geometry">
            <mxPoint x="320" y="240" as="sourcePoint" />
            <mxPoint x="680" y="150" as="targetPoint" />
            <Array as="points">
              <mxPoint x="680" y="300" />
            </Array>
          </mxGeometry>
        </mxCell>
        <mxCell id="zxp86utd3J-CDjJP3rCu-24" value="" style="endArrow=none;html=1;rounded=0;" edge="1" parent="1">
          <mxGeometry width="50" height="50" relative="1" as="geometry">
            <mxPoint x="-753" y="690" as="sourcePoint" />
            <mxPoint x="-113" y="690" as="targetPoint" />
          </mxGeometry>
        </mxCell>
        <mxCell id="zxp86utd3J-CDjJP3rCu-26" value="" style="endArrow=classic;html=1;rounded=0;entryX=0.5;entryY=0;entryDx=0;entryDy=0;" edge="1" parent="1" target="zxp86utd3J-CDjJP3rCu-20">
          <mxGeometry width="50" height="50" relative="1" as="geometry">
            <mxPoint x="-413.86" y="690" as="sourcePoint" />
            <mxPoint x="-413.86" y="710" as="targetPoint" />
          </mxGeometry>
        </mxCell>
        <mxCell id="zxp86utd3J-CDjJP3rCu-27" value="" style="endArrow=classic;html=1;rounded=0;exitX=0.5;exitY=1;exitDx=0;exitDy=0;" edge="1" parent="1" source="zxp86utd3J-CDjJP3rCu-19">
          <mxGeometry width="50" height="50" relative="1" as="geometry">
            <mxPoint x="-442" y="420" as="sourcePoint" />
            <mxPoint x="-413.11" y="450" as="targetPoint" />
          </mxGeometry>
        </mxCell>
        <mxCell id="zxp86utd3J-CDjJP3rCu-28" value="" style="endArrow=classic;html=1;rounded=0;" edge="1" parent="1">
          <mxGeometry width="50" height="50" relative="1" as="geometry">
            <mxPoint x="-272.36" y="670" as="sourcePoint" />
            <mxPoint x="-272.36" y="690" as="targetPoint" />
          </mxGeometry>
        </mxCell>
        <mxCell id="zxp86utd3J-CDjJP3rCu-30" value="&lt;font style=&quot;font-size: 14px;&quot;&gt;Điều khiển trên Node-red&lt;/font&gt;" style="text;html=1;align=center;verticalAlign=middle;whiteSpace=wrap;rounded=0;" vertex="1" parent="1">
          <mxGeometry x="-113" y="450" width="70" height="30" as="geometry" />
        </mxCell>
        <mxCell id="zxp86utd3J-CDjJP3rCu-33" value="" style="endArrow=classic;html=1;rounded=0;" edge="1" parent="1">
          <mxGeometry width="50" height="50" relative="1" as="geometry">
            <mxPoint x="640" y="149.9" as="sourcePoint" />
            <mxPoint x="680" y="149.9" as="targetPoint" />
          </mxGeometry>
        </mxCell>
      </root>
    </mxGraphModel>
  </diagram>
</mxfile>
